<svg width="150" height="143" viewBox="0 0 150 143" fill="none" xmlns="http://www.w3.org/2000/svg">
<path fill-rule="evenodd" clip-rule="evenodd" d="M22.6399 60.5051C13.2596 66.6657 8.83056 78.1061 11.6173 88.977C14.2278 99.3291 22.439 107.333 32.8546 109.678C45.5302 111.719 58.3026 106.634 66.1086 96.4413C69.7538 91.4964 71.2871 85.3066 70.3711 79.232C69.234 72.981 66.2843 67.202 61.8889 62.6139C58.093 58.4439 53.0853 55.5688 47.5702 54.3926C40.9026 53.299 34.0602 54.3832 28.0573 57.4844C26.1957 58.3836 24.3869 59.3879 22.6394 60.4928C21.8042 61.0155 22.7602 62.2163 23.5882 61.6962C29.4674 57.6598 36.4244 55.4841 43.5556 55.4517C48.969 55.7044 54.1446 57.7498 58.2686 61.2656C67.078 68.6711 72.2952 81.7283 66.7363 92.5237C61.3993 102.892 48.0721 109.376 36.6375 108.638C26.5427 107.834 17.8015 101.317 14.149 91.8719C9.46221 80.8599 13.4614 68.0745 23.5882 61.6962C24.4085 61.1347 23.4598 59.9313 22.6394 60.4929" fill="#003849" fill-opacity="0.2"/>
<path fill-rule="evenodd" clip-rule="evenodd" d="M27.56 66.4498C20.7469 70.9307 17.542 79.2515 19.5887 87.1451C21.5 94.6416 27.4681 100.424 35.021 102.098C44.2109 103.561 53.4598 99.8471 59.085 92.4343C64.6648 84.6536 62.23 74.6852 56.0306 68.0353C52.9171 64.5774 48.6621 62.3566 44.0448 61.7796C38.1832 61.4433 32.3784 63.0834 27.5596 66.4375C26.7229 66.9582 27.6791 68.1588 28.5083 67.6409C36.1752 62.8593 45.7141 61.1171 53.1081 67.3398C59.3558 72.5971 63.0538 81.8695 59.0816 89.5226C54.5807 97.0248 46.2834 101.404 37.5497 100.887C30.4359 100.242 24.3121 95.5988 21.7707 88.9233C18.6639 81.1297 21.4825 72.2264 28.5085 67.6407C29.3274 67.0772 28.3787 65.8738 27.5598 66.4373" fill="#003849" fill-opacity="0.2"/>
<path fill-rule="evenodd" clip-rule="evenodd" d="M91.437 38.0242C82.0456 44.1808 77.6083 55.6284 80.3974 66.5062C83.0074 76.8587 91.2189 84.8629 101.635 87.2075C114.315 89.2523 127.095 84.167 134.903 73.9686C138.548 69.0235 140.081 62.834 139.166 56.7595C138.028 50.5087 135.077 44.7305 130.682 40.1429C126.886 35.9723 121.878 33.0969 116.363 31.9217C109.695 30.8282 102.853 31.9123 96.8496 35.0136C94.9879 35.912 93.1789 36.9165 91.4318 38.022C90.5966 38.5447 91.5528 39.7453 92.3805 39.2253C98.2599 35.189 105.217 33.0133 112.348 32.9808C117.762 33.2326 122.938 35.2779 127.061 38.7947C135.87 46.2002 141.089 59.2559 135.527 70.0509C130.19 80.4186 116.863 86.9031 105.429 86.1646C95.3335 85.3613 86.5921 78.8442 82.9401 69.3989C78.2533 58.3869 82.2528 45.6013 92.379 39.2234C93.1996 38.6617 92.2509 37.4583 91.4303 38.02" fill="#003849" fill-opacity="0.2"/>
<path fill-rule="evenodd" clip-rule="evenodd" d="M96.3503 43.9794C89.5372 48.4604 86.3322 56.7812 88.3789 64.6748C90.2895 72.1718 96.2578 77.9546 103.811 79.6277C112.997 81.0878 122.241 77.3758 127.866 69.9682C133.446 62.1875 131.009 52.2171 124.81 45.5672C121.694 42.1141 117.44 39.8978 112.824 39.324C106.963 38.9874 101.158 40.6276 96.3396 43.9815C95.5029 44.5023 96.4588 45.7031 97.2883 45.1849C104.955 40.4035 114.494 38.6615 121.888 44.8841C128.136 50.1413 131.834 59.4137 127.861 67.0669C123.361 74.57 115.063 78.9497 106.33 78.4316C99.2164 77.785 93.0931 73.1421 90.5505 66.4675C87.4432 58.6738 90.2613 49.7699 97.2868 45.1829C98.1056 44.6195 97.1569 43.4161 96.3381 43.9796" fill="#003849" fill-opacity="0.2"/>
<path fill-rule="evenodd" clip-rule="evenodd" d="M66.4849 68.5232C68.3021 63.5036 75.185 61.7967 79.7536 63.7268C80.6619 64.1094 81.2261 62.6827 80.3145 62.2994C74.9851 60.0535 67.1495 62.1737 65.0517 67.9671C64.7178 68.8934 66.1428 69.4591 66.4809 68.5264" fill="#003849" fill-opacity="0.2"/>
<path fill-rule="evenodd" clip-rule="evenodd" d="M69.1849 73.8304C70.767 68.9488 77.1577 67.3426 81.488 69.3469C82.3833 69.7619 82.9424 68.336 82.0487 67.9197C76.9982 65.5865 69.5928 67.6359 67.7575 73.2696C67.4547 74.203 68.8791 74.7724 69.1849 73.8304" fill="#003849" fill-opacity="0.2"/>
<path fill-rule="evenodd" clip-rule="evenodd" d="M27.049 86.0303L33.7162 72.8802C34.1629 72.0007 32.7331 71.4451 32.2869 72.3209L25.6197 85.471C25.1751 86.3488 26.6028 86.9062 27.049 86.0303" fill="#003849" fill-opacity="0.2"/>
<path fill-rule="evenodd" clip-rule="evenodd" d="M35.8514 89.9309C38.9333 83.851 41.9565 77.7417 45.0401 71.6606C45.4847 70.7828 44.057 70.2254 43.6128 71.0998C40.5311 77.1794 37.5058 83.2904 34.4241 89.37C33.9797 90.2477 35.4074 90.805 35.8533 89.9294" fill="#003849" fill-opacity="0.2"/>
<path fill-rule="evenodd" clip-rule="evenodd" d="M46.2076 87.5473C47.1716 85.8021 48.019 83.9974 48.9215 82.2186C49.0713 81.8243 48.8776 81.3831 48.4863 81.2261C48.0924 81.0795 47.653 81.271 47.4923 81.6593C46.6529 83.322 45.8738 85.0129 44.973 86.6419C44.7369 86.9863 44.808 87.4548 45.1357 87.7135C45.4783 87.9614 45.9566 87.888 46.2091 87.5493" fill="#003849" fill-opacity="0.2"/>
<path fill-rule="evenodd" clip-rule="evenodd" d="M97.3201 67.4773L106.215 49.9473C106.661 49.068 105.231 48.5123 104.787 49.3865L95.8928 66.9165C95.4484 67.7942 96.8761 68.3515 97.3201 67.4773" fill="#003849" fill-opacity="0.2"/>
<path fill-rule="evenodd" clip-rule="evenodd" d="M111.291 67.0998C112.974 63.6279 114.719 60.1907 116.524 56.7886C116.677 56.3944 116.483 55.9512 116.091 55.7944C115.697 55.6495 115.259 55.8403 115.097 56.2276C113.29 59.6332 111.546 63.0703 109.864 66.539C109.434 67.4272 110.864 67.9831 111.291 67.0998" fill="#003849" fill-opacity="0.2"/>
<path fill-rule="evenodd" clip-rule="evenodd" d="M121.165 63.1731L121.562 62.1728C121.595 62.0713 121.6 61.9571 121.578 61.8404C121.574 61.7253 121.541 61.6067 121.482 61.4962C121.429 61.3789 121.35 61.2719 121.253 61.1853C121.17 61.0872 121.068 61.009 120.957 60.9593C120.742 60.8512 120.513 60.8283 120.318 60.8953L120.133 60.9972C120.025 61.0821 119.947 61.2016 119.907 61.3431L119.513 62.3417C119.48 62.4436 119.475 62.5578 119.496 62.6743C119.514 62.9126 119.633 63.1534 119.82 63.3307C119.903 63.4291 120.005 63.5072 120.116 63.5569C120.331 63.6657 120.56 63.6888 120.754 63.6209L120.938 63.5206C121.046 63.436 121.124 63.3165 121.163 63.1747" fill="#003849" fill-opacity="0.2"/>
</svg>
