<svg width="44" height="45" viewBox="0 0 44 45" fill="none" xmlns="http://www.w3.org/2000/svg">
<g clip-path="url(#clip0_2144_5796)">
<path d="M1.60564 35.0211C1.60564 35.0211 8.61524 2.18114 23.0108 4.79225C37.4063 7.40335 19.5159 33.4516 15.9943 25.3796C12.3597 17.0861 41.1627 16.1158 37.1644 29.1144C33.166 42.1131 1.60564 35.0211 1.60564 35.0211Z" fill="white"/>
<path d="M0.423939 34.217C1.71917 28.629 8.89675 0.85114 23.2663 3.45622C25.7588 3.92231 27.5858 5.01554 28.6892 6.75035C30.4001 9.40735 30.2067 13.5485 28.2369 18.0314C32.3419 18.5085 35.7229 20.1014 37.4616 22.4021C38.924 24.3597 39.2718 26.7565 38.4393 29.5216C34.1175 43.5616 2.65013 36.6586 1.29314 36.372C0.591731 36.2094 0.129288 35.4883 0.29503 34.7732L0.4178 34.2435L0.423939 34.217ZM26.8806 13.7264C27.249 12.1374 27.4727 9.87299 26.4486 8.2682C25.742 7.18349 24.5153 6.45266 22.7762 6.16119C11.2949 4.08604 4.61118 28.4342 3.23801 34.0042C12.4956 35.8709 33.0941 37.9384 35.9104 28.7401C36.5083 26.8694 36.2881 25.3393 35.3462 24.0885C33.9235 22.1959 30.7409 20.9281 26.917 20.6557C24.642 24.5655 21.013 28.4127 17.9424 28.3149C16.5561 28.2727 15.4381 27.4275 14.8174 25.972C14.3904 24.98 14.2873 24.0073 14.5022 23.0804C15.3309 19.505 20.4328 17.9248 25.3926 17.9024C26.1001 16.5036 26.6257 15.0626 26.9265 13.7649L26.8806 13.7264ZM23.7118 20.6662C19.8889 20.9801 17.3549 22.3463 17.048 23.6704C16.9682 24.0147 17.0183 24.3891 17.212 24.8526C17.5384 25.5701 17.8624 25.5894 18.0244 25.5991C19.2747 25.6377 21.6272 23.7551 23.7057 20.6927L23.7118 20.6662Z" fill="#261D2A"/>
</g>
<defs>
<clipPath id="clip0_2144_5796">
<rect width="37" height="36" fill="white" transform="translate(43.4248 8.12866) rotate(103.05)"/>
</clipPath>
</defs>
</svg>
