<svg width="24" height="24" viewBox="0 0 24 24" fill="none" xmlns="http://www.w3.org/2000/svg">
<path d="M10.9136 12.6906C10.9214 12.6981 10.9294 12.7055 10.9374 12.7126C11.9951 13.7707 12.4089 15.3074 12.0239 16.7494L12.0239 16.7495C11.6354 18.2048 10.4919 19.3439 9.02469 19.7315C7.55848 20.1188 5.99699 19.6952 4.93217 18.6237C3.33528 16.976 3.359 14.3607 4.98642 12.7418C6.61691 11.1199 9.25492 11.0971 10.9136 12.6906ZM11.9185 11.5763C9.67022 9.45107 6.12589 9.49259 3.92857 11.6784L3.92856 11.6784C1.71797 13.8773 1.68683 17.4345 3.85878 19.6715L3.85875 19.6716L3.8644 19.6773C5.30796 21.1326 7.42339 21.7059 9.40779 21.1818L9.40781 21.1818C11.3925 20.6575 12.9451 19.1148 13.4732 17.1363C14.0014 15.1576 13.4229 13.05 11.9595 11.6136C11.9462 11.6006 11.9325 11.5881 11.9185 11.5763ZM12.7485 16.9429L13.4732 17.1363L12.7485 16.9429Z" fill="#696984"/>
<path d="M20.5303 2.96967C20.8232 3.26256 20.8232 3.73744 20.5303 4.03033L12.0303 12.5303C11.7374 12.8232 11.2626 12.8232 10.9697 12.5303C10.6768 12.2374 10.6768 11.7626 10.9697 11.4697L19.4697 2.96967C19.7626 2.67678 20.2374 2.67678 20.5303 2.96967Z" fill="#696984"/>
<path d="M17.7901 4.76808C18.0826 4.47705 18.5553 4.47705 18.8479 4.76808L21.5622 7.46808C21.7037 7.60884 21.7833 7.80021 21.7833 7.99981C21.7833 8.1994 21.7037 8.39077 21.5622 8.53153L18.3955 11.6815C18.1029 11.9726 17.6302 11.9726 17.3377 11.6815L14.6234 8.98153C14.4819 8.84076 14.4023 8.6494 14.4023 8.4498C14.4023 8.25021 14.4819 8.05884 14.6234 7.91808L17.7901 4.76808ZM18.319 6.35768L16.2158 8.44981L17.8666 10.0919L19.9698 7.9998L18.319 6.35768Z" fill="#696984"/>
</svg>
