<svg width="47" height="47" viewBox="0 0 47 47" fill="none" xmlns="http://www.w3.org/2000/svg">
<circle cx="23.02" cy="23.02" r="23.02" fill="white"/>
<path d="M19.2529 20.668H16.3818V29.8236H19.2529V20.668Z" fill="#FFA800"/>
<path d="M27.0195 20.4697C26.9136 20.4564 26.8012 20.4498 26.6887 20.4432C25.0812 20.3771 24.1749 21.3297 23.8574 21.7398C23.7714 21.8523 23.7317 21.9184 23.7317 21.9184V20.6946H20.9863V29.8502H23.7317H23.8574C23.8574 28.9174 23.8574 27.9913 23.8574 27.0585C23.8574 26.5558 23.8574 26.053 23.8574 25.5502C23.8574 24.9284 23.8111 24.2669 24.122 23.698C24.3866 23.2217 24.8629 22.9835 25.3987 22.9835C26.9864 22.9835 27.0195 24.419 27.0195 24.5513C27.0195 24.5579 27.0195 24.5646 27.0195 24.5646V29.8899H29.8905V23.9163C29.8905 21.8721 28.8519 20.6681 27.0195 20.4697Z" fill="#FFA800"/>
<path d="M17.8174 19.484C18.7381 19.484 19.4845 18.7377 19.4845 17.817C19.4845 16.8963 18.7381 16.1499 17.8174 16.1499C16.8968 16.1499 16.1504 16.8963 16.1504 17.817C16.1504 18.7377 16.8968 19.484 17.8174 19.484Z" fill="#FFA800"/>
</svg>
