<svg width="1920" height="373" viewBox="0 0 1920 373" fill="none" xmlns="http://www.w3.org/2000/svg">
<path d="M1117.49 356C1116.13 350.308 1115.4 344.316 1115.4 338.123C1115.4 309.539 1130.85 285.168 1152.59 275.565C1158.88 246.506 1181.52 224.993 1208.52 224.993C1235.51 224.993 1256.73 245.202 1263.79 272.883C1267.9 271.804 1272.18 271.203 1276.59 271.203C1283.96 271.203 1291.02 272.832 1297.5 275.766C1306.54 252.548 1326.68 236.351 1350.06 236.351C1373.44 236.351 1393.21 252.247 1402.38 275.139C1411 269.172 1421.09 265.737 1431.85 265.737C1444.08 265.737 1455.41 270.15 1464.72 277.697C1473.8 254.579 1493.87 238.507 1517.21 238.507C1525.55 238.507 1533.46 240.563 1540.61 244.274C1558.59 206.263 1593.41 180.488 1633.41 180.488C1691.86 180.488 1739.23 235.448 1739.23 303.271C1739.23 322.151 1735.56 340.028 1728.99 356H1117.49Z" fill="white" fill-opacity="0.7"/>
<path d="M1197.64 373C1199.66 364.504 1200.75 355.558 1200.75 346.313C1200.75 303.645 1177.78 267.264 1145.45 252.929C1136.1 209.549 1102.42 177.436 1062.28 177.436C1022.14 177.436 990.585 207.603 980.076 248.924C973.97 247.315 967.607 246.417 961.052 246.417C950.093 246.417 939.585 248.849 929.944 253.229C916.511 218.57 886.561 194.391 851.79 194.391C817.019 194.391 787.614 218.121 773.989 252.293C761.167 243.385 746.159 238.257 730.155 238.257C711.967 238.257 695.127 244.845 681.277 256.111C667.78 221.601 637.925 197.61 603.219 197.61C590.814 197.61 579.053 200.679 568.416 206.218C541.678 149.477 489.908 111 430.424 111C343.497 111 273.055 193.043 273.055 294.288C273.055 322.471 278.518 349.158 288.287 373H1197.64Z" fill="white" fill-opacity="0.7"/>
<path d="M49.3478 323.432C49.3478 323.61 49.4171 323.823 49.4171 324H745.45C749.574 316.69 752 308.208 752 299.159C752 271.726 730.272 249.476 703.484 249.476C700.954 249.476 698.494 249.724 696.102 250.114C686.33 220.73 659.23 199.58 627.244 199.58C621.353 199.58 615.67 200.36 610.194 201.709C605.204 153.907 566.495 116.467 518.915 114.728C501.414 66.9973 456.433 33 403.724 33C351.014 33 307.627 65.8262 289.468 112.244C269.784 93.8971 243.586 82.6829 214.857 82.6829C164.99 82.6829 122.815 116.396 108.849 162.814C101.018 160.33 92.6658 158.982 84.0369 158.982C37.6347 158.982 0 197.521 0 245.04C0 279.889 20.2728 309.911 49.3478 323.432Z" fill="#F6F9FB"/>
<path d="M1920 275.298L1920 310L1174.55 305.372C1170.43 297.701 1168 288.8 1168 279.304C1168 250.517 1189.73 227.167 1216.52 227.167C1219.05 227.167 1221.51 227.428 1223.9 227.837C1233.67 197.002 1260.77 174.807 1292.76 174.807C1298.65 174.807 1304.33 175.626 1309.81 177.041C1314.8 126.878 1353.5 87.5897 1401.09 85.7649C1418.59 35.6764 1463.57 0 1516.28 0C1568.99 0 1612.37 34.4475 1630.53 83.1581C1650.22 63.9047 1676.41 52.1367 1705.14 52.1367C1755.01 52.1367 1797.18 87.5152 1811.15 136.226C1818.98 133.619 1827.33 132.204 1835.96 132.204C1882.37 132.204 1920 172.647 1920 222.512C1920 259.082 1920 275.298 1920 275.298Z" fill="#F6F9FB"/>
<path d="M0 346.996C0 346.996 0 371.823 0 372L745.45 371.823C749.574 364.517 752 356.04 752 346.996C752 319.581 730.272 297.344 703.484 297.344C700.954 297.344 698.494 297.592 696.102 297.982C686.33 268.616 659.23 247.478 627.244 247.478C621.353 247.478 615.67 248.258 610.194 249.606C605.204 201.833 566.495 164.416 518.915 162.679C501.414 114.977 456.433 81 403.723 81C351.014 81 307.627 113.806 289.468 160.196C269.784 141.86 243.586 130.653 214.857 130.653C164.989 130.653 122.815 164.346 108.849 210.735C101.018 208.253 92.6658 206.905 84.0369 206.905C37.6346 206.905 0 245.421 0 292.91C0 327.738 0 346.996 0 346.996Z" fill="#5076C0"/>
<path d="M1920 346.963C1920 365.606 1920 373 1920 373H1174.55C1170.43 365.338 1168 356.448 1168 346.963C1168 318.212 1189.73 294.89 1216.52 294.89C1219.05 294.89 1221.51 295.151 1223.9 295.56C1233.67 264.762 1260.77 242.594 1292.76 242.594C1298.65 242.594 1304.33 243.412 1309.81 244.826C1314.8 194.724 1353.5 155.483 1401.09 153.66C1418.59 103.633 1463.57 68 1516.28 68C1568.99 68 1612.37 102.405 1630.53 151.057C1650.22 131.827 1676.41 120.073 1705.14 120.073C1755.01 120.073 1797.18 155.409 1811.15 204.06C1818.98 201.456 1827.33 200.043 1835.96 200.043C1882.37 200.043 1920 240.437 1920 290.241C1920 326.766 1920 316.621 1920 346.963Z" fill="#5076C0"/>
<path d="M755.592 357C756.507 354.86 757 352.606 757 350.277C757 339.529 746.622 330.364 732.021 326.753C727.797 315.825 712.586 307.736 694.458 307.736C676.329 307.736 662.076 315.335 657.33 325.744C654.572 325.339 651.698 325.113 648.738 325.113C643.788 325.113 639.042 325.725 634.688 326.829C628.621 318.098 615.093 312.007 599.389 312.007C583.684 312.007 570.404 317.985 564.25 326.593C558.458 324.349 551.68 323.057 544.452 323.057C536.237 323.057 528.631 324.717 522.376 327.555C516.28 318.861 502.796 312.818 487.12 312.818C481.518 312.818 476.206 313.591 471.401 314.986C459.325 300.693 435.943 291 409.077 291C369.815 291 338 311.667 338 337.172C338 344.271 340.467 350.994 344.88 357H755.592Z" fill="#5076C0"/>
<path d="M1527.52 357C1528.48 353.498 1529 349.81 1529 345.999C1529 328.411 1518.13 313.414 1502.83 307.505C1498.4 289.623 1482.47 276.386 1463.47 276.386C1444.48 276.386 1429.55 288.821 1424.57 305.854C1421.68 305.191 1418.67 304.821 1415.57 304.821C1410.38 304.821 1405.41 305.823 1400.85 307.629C1394.49 293.342 1380.32 283.375 1363.87 283.375C1347.41 283.375 1333.5 293.157 1327.05 307.243C1320.98 303.571 1313.88 301.457 1306.31 301.457C1297.7 301.457 1289.73 304.173 1283.18 308.817C1276.79 294.591 1262.66 284.702 1246.24 284.702C1240.37 284.702 1234.8 285.967 1229.77 288.25C1217.12 264.861 1192.62 249 1164.47 249C1123.33 249 1090 282.819 1090 324.554C1090 336.171 1092.59 347.172 1097.21 357H1527.52Z" fill="#5076C0"/>
<path d="M1108.77 356.696C1108.77 356.791 1108.73 356.905 1108.73 357H724.615C722.339 353.081 721 348.534 721 343.683C721 328.977 732.991 317.049 747.774 317.049C749.17 317.049 750.528 317.182 751.848 317.391C757.241 301.639 772.196 290.3 789.848 290.3C793.099 290.3 796.235 290.719 799.257 291.442C802.011 265.816 823.373 245.745 849.631 244.813C859.289 219.225 884.112 201 913.2 201C942.289 201 966.232 218.598 976.254 243.481C987.116 233.646 1001.57 227.634 1017.43 227.634C1044.95 227.634 1068.22 245.707 1075.93 270.591C1080.25 269.26 1084.86 268.537 1089.62 268.537C1115.23 268.537 1136 289.197 1136 314.671C1136 333.353 1124.81 349.447 1108.77 356.696Z" fill="#5076C0"/>
</svg>
