<svg width="147" height="150" viewBox="0 0 147 150" fill="none" xmlns="http://www.w3.org/2000/svg">
<path d="M146.239 63.0608C145.696 60.7323 143.855 60.1987 143.252 60.0223C142.269 59.7445 141.364 59.7268 140.554 59.7136C140.015 59.7048 139.541 59.6959 139.106 59.6166C137.114 50.6289 133.421 42.2896 128.111 34.8322C129.425 33.3284 130.761 31.5379 131.067 29.5093C131.197 28.6934 130.641 27.7894 129.434 26.193L129.374 26.118C129.257 25.9592 129.162 25.8446 129.158 25.8402C128.037 23.5073 126.43 21.8844 124.878 20.4202C124.572 20.1336 124.137 19.6132 123.637 19.009C121.633 16.6144 118.9 13.3201 116.12 14.427C114.607 15.0268 113.392 15.7412 112.172 16.7423C111.789 17.0554 111.336 17.4655 110.784 17.9639C104.112 13.4921 96.7811 10.3301 88.9885 8.56167L88.5316 7.34891C88.273 6.66536 88.0101 5.97739 87.7645 5.29384C87.6352 4.93663 87.5576 4.60587 87.4757 4.24866C87.2171 3.17702 86.9283 1.95986 85.2086 1.30717C81.9545 0.0679546 77.5109 0.751509 74.2611 1.25425L73.8517 1.31599C73.3517 1.38655 72.813 1.38214 72.2613 1.37773C70.8821 1.35127 69.1753 1.31599 67.9297 2.94329C66.8824 4.31481 66.141 6.17143 65.6842 7.55618C57.9046 8.62782 51.3921 10.8946 43.9832 15.1194C43.7246 14.9959 43.4401 14.8989 43.1599 14.8019L43.0608 14.7666C42.8712 14.7004 42.6341 14.6166 42.5005 14.5681C41.9488 13.5494 40.9704 12.6409 39.7981 13.0158C37.2595 13.8317 35.2079 15.4634 33.2124 17.0466C32.0357 17.9771 30.8203 18.9429 29.5575 19.6749C27.9369 20.6231 24.5578 22.59 25.7905 26.4576L26.381 28.2965C20.4116 34.8013 15.83 42.294 12.7527 50.5716C12.2527 50.7612 11.7527 50.8671 11.2398 50.9023C10.7744 50.9464 10.2615 50.8627 9.64944 50.7656C8.73571 50.6245 7.7875 50.479 6.76172 50.7524C5.24027 51.1625 4.09812 51.6829 3.09388 53.0103C0.473379 56.4943 0.361318 62.7565 0.283738 67.3341L0.257877 68.5381C0.244947 69.1158 0.201847 69.7817 0.154437 70.5093C-0.104165 74.6812 -0.466208 80.3966 3.03785 82.8045C3.5766 83.1661 4.3481 83.1793 5.16269 83.1882H5.44285C6.55483 83.2234 7.7444 83.4439 9.07189 83.8717C10.1235 91.7304 12.4984 99.2759 16.136 106.297C16.1447 106.914 16.1059 107.404 16.0024 107.831C15.8343 108.537 15.0585 109.498 14.3 110.433C13.6793 111.201 13.0975 111.924 12.7139 112.652C10.9252 116.065 14.5974 119.527 16.8127 121.613C17.1791 121.957 17.5109 122.27 17.7695 122.539C18.0023 122.781 18.3428 123.209 18.735 123.708L18.847 123.849C21.265 126.909 23.6139 129.617 25.8422 129.127C26.8335 128.916 27.618 128.479 28.174 127.831C28.8291 127.068 29.036 126.742 29.4971 125.86C29.7299 125.423 29.9626 125.07 30.2083 124.779C36.5484 130.658 43.8237 135.165 51.8447 138.172C52.2455 138.975 52.5429 139.667 52.7886 140.347C53.1204 141.259 53.0256 141.969 52.9222 142.724C52.7842 143.738 52.6075 145.004 53.81 146.291C54.4479 146.97 55.7668 147.107 57.3012 147.209L57.4089 147.217C57.6287 147.231 57.8054 147.239 57.9218 147.261L59.7708 147.553C62.0681 147.919 64.236 148.267 66.5548 148.492C67.1367 148.549 67.9728 148.739 68.8908 148.951C70.4381 149.308 72.1923 149.713 73.7913 149.713C75.3904 149.713 76.442 149.347 77.2437 148.584C77.61 148.24 78.4505 147.323 78.4505 146.256C78.4548 144.708 78.8255 143.381 79.6271 142.093C93.9278 140.99 107.194 135.31 118.025 125.652C118.206 125.824 118.404 126.032 118.629 126.261C119.702 127.359 120.913 128.603 122.271 128.673C123.503 128.757 124.15 128.206 124.801 127.65L125.063 127.43C126.568 126.199 127.964 124.567 129.317 122.984L129.063 122.755L129.374 122.918C129.977 122.217 130.563 121.529 131.141 120.907L131.615 120.418C136.373 115.531 137.834 113.119 137.007 111.518C136.498 110.53 135.748 109.803 135.02 109.101C134.546 108.638 134.093 108.202 133.731 107.712C133.451 107.329 133.179 106.936 132.916 106.544C136.425 99.8537 138.791 92.6565 139.937 85.1462L140.985 84.8948C141.166 84.8552 141.351 84.8243 141.584 84.7846C142.308 84.6655 143.213 84.52 143.954 83.8144C145.816 82.0416 145.997 79.3382 146.152 76.9524C146.217 75.9645 146.282 75.0296 146.454 74.2579C147.226 70.8401 147.152 66.9681 146.243 63.0608H146.239ZM138.119 83.4351L138.015 84.1363C136.912 91.8627 134.494 99.2539 130.822 106.098L130.524 106.654L130.869 107.183C131.322 107.876 131.71 108.44 132.093 108.965C132.55 109.591 133.084 110.111 133.619 110.623C133.942 110.936 134.252 111.24 134.524 111.549C133.097 112.1 129.511 115.924 127.481 118.257C126.115 119.827 122.111 124.559 121.779 126.323C121.215 125.948 120.529 125.251 120.051 124.766C119.611 124.312 119.193 123.888 118.792 123.588L117.9 122.962L117.301 123.509C106.565 133.33 93.3158 139.05 78.9806 140.042L78.4979 140.078L78.2177 140.483C76.9851 142.26 76.4075 144.095 76.4032 146.252C76.3946 146.353 76.1963 146.732 75.8515 147.054C74.7309 148.126 71.6493 147.451 69.5158 146.957C70.6623 147.063 71.7829 147.147 72.6966 147.147C73.7051 147.147 74.4766 147.059 74.7697 146.834C74.9206 146.719 74.968 146.587 74.9809 146.499C74.9938 146.406 74.9895 146.26 74.8775 146.106C74.1836 145.14 68.5288 144.02 65.2963 143.513C62.9732 143.147 55.3875 142.066 55.1849 143.394C55.172 143.486 55.1763 143.632 55.2884 143.782C55.7064 144.364 57.9304 144.999 60.3354 145.524C60.2535 145.511 60.1716 145.502 60.0897 145.489L58.2407 145.193C58.077 145.167 57.7925 145.145 57.4434 145.127C55.6677 145.008 55.3228 144.858 55.297 144.845C54.7798 144.289 54.8315 143.914 54.9565 143.01C55.0729 142.172 55.2323 141.026 54.7151 139.61C54.3962 138.737 54.004 137.859 53.4825 136.845L53.2971 136.483L52.9222 136.347C44.7202 133.326 37.3242 128.7 30.9324 122.605L30.3376 122.045L29.6652 122.504C28.9196 123.02 28.2774 123.791 27.7128 124.867C27.312 125.626 27.1999 125.815 26.6525 126.451C26.6051 126.508 26.5275 126.543 26.4715 126.592C26.8034 126.076 26.5749 125.101 25.7172 123.566C24.8854 122.08 23.5881 120.285 22.0623 118.508C20.5323 116.731 18.9591 115.179 17.623 114.147C16.4205 113.216 15.5714 112.824 15.0068 112.912C15.2697 112.546 15.5671 112.162 15.8947 111.756C16.7912 110.649 17.7221 109.498 17.998 108.33C18.1574 107.659 18.2221 106.91 18.1704 105.9L18.0626 105.525C14.3775 98.4733 12.0113 90.8793 11.0286 82.95L10.9468 82.3062L10.3477 82.0945C8.57624 81.4683 6.99446 81.1419 5.51181 81.0978H5.04632C4.85668 81.0978 4.27052 81.089 4.18001 81.0625C1.65433 79.3294 1.96896 74.3108 2.19739 70.646C2.24911 69.8875 2.2879 69.1907 2.30514 68.591L2.331 67.3738C2.39996 63.3342 2.50771 57.2263 4.71876 54.2937C5.3782 53.4205 6.09797 53.0985 7.28323 52.7854C7.90818 52.6178 8.61072 52.7281 9.36067 52.8428C9.97269 52.9354 10.6666 53.0456 11.3821 52.9927C12.2656 52.9354 13.1104 52.7193 13.9681 52.3268L14.3603 52.146L14.5112 51.7358C17.5627 43.3524 22.1959 35.798 28.2774 29.2888L28.6998 28.839L27.7343 25.8137C27.6955 25.6858 27.674 25.5711 27.6524 25.4521C27.6912 25.4521 27.7128 25.4697 27.7559 25.4697C29.3592 25.4697 33.3158 23.203 34.6606 22.4047C35.7984 21.7256 41.4359 18.2858 40.7593 17.0907C40.0826 15.8955 34.3718 19.2207 33.2339 19.8999C32.4236 20.3805 29.3678 22.2504 27.8981 23.7278C28.3205 23.0089 29.1653 22.3165 30.5746 21.5007C31.9625 20.6937 33.2382 19.6838 34.4968 18.6827C36.3932 17.1789 38.1862 15.7588 40.3153 15.0444C40.4101 15.1238 40.5912 15.3222 40.7636 15.653C41.0868 16.288 41.8109 16.535 42.5134 16.7776C42.6643 16.8305 43.0306 16.9584 43.1556 17.0113L43.6427 17.7257L44.4486 17.2582C52.0214 12.8703 58.6416 10.5638 66.5936 9.54951L67.2487 9.46572L67.4427 8.82186C67.9642 7.08872 68.5934 5.67751 69.2744 4.65879C69.4899 5.57608 72.6492 5.7613 75.0413 5.7613C75.9162 5.7613 76.6834 5.73925 77.1661 5.7172C79.0151 5.64223 85.0319 5.28943 84.9888 3.94878C84.95 2.93447 81.4934 2.76689 79.0108 2.77571C80.9848 2.63018 82.9631 2.6831 84.5018 3.26963C85.2086 3.53865 85.2733 3.82089 85.4974 4.7514C85.5836 5.10421 85.687 5.54962 85.8594 6.02149C86.1396 6.78884 86.4284 7.55177 86.7171 8.31471L87.4886 10.3698L88.0317 10.4889C96.0354 12.2352 103.535 15.4854 110.315 20.1512L110.97 20.601L112.112 19.5691C112.616 19.1105 113.073 18.6959 113.457 18.3828C114.508 17.5228 115.56 16.901 116.87 16.3851C116.887 16.3762 116.905 16.3851 116.922 16.3806C117.073 18.1755 120.702 22.8678 121.525 23.9086C123.917 26.9338 126.822 30.0429 127.912 30.1576C127.934 30.1576 127.964 30.1576 127.986 30.1576C128.154 30.1576 128.27 30.0958 128.339 30.0385C128.421 29.9724 128.52 29.8489 128.542 29.6328C128.632 28.7684 127.162 26.3429 125.413 23.9306C126.188 24.817 126.826 25.7079 127.339 26.7751C127.395 26.8897 127.563 27.1279 127.843 27.5027C128.774 28.7375 128.999 29.1433 129.046 29.2712C128.757 30.9734 127.352 32.636 126.05 34.0649L125.469 34.6999L125.982 35.4011C131.507 42.9687 135.3 51.4801 137.252 60.6926L137.369 61.2527L137.894 61.4467C138.787 61.7863 139.674 61.7995 140.532 61.8128C141.243 61.826 141.98 61.8392 142.7 62.0421C142.916 62.1082 143.101 62.1788 143.265 62.2582C142.472 63.5106 141.993 68.882 141.83 72.044C141.713 74.3417 141.437 81.627 142.567 82.2841V82.2885C142.278 82.5575 141.808 82.6369 141.226 82.7339C140.989 82.7736 140.752 82.8133 140.519 82.8706L138.123 83.4439L138.119 83.4351ZM135.183 112.462C135.192 112.493 135.227 112.973 133.938 114.68C134.533 113.807 134.977 113.031 135.175 112.449C135.175 112.453 135.183 112.458 135.183 112.462ZM14.4034 114.058C14.5715 115.271 15.7309 117.176 17.0067 118.914C15.4895 117.401 14.0112 115.58 14.4034 114.058ZM25.8164 126.949C25.6914 126.989 25.5879 127.041 25.4414 127.077C24.7733 127.218 23.6053 126.173 22.5235 124.995C23.782 126.093 25.0147 126.931 25.8164 126.949ZM69.9037 3.87822C70.1838 3.66213 70.5416 3.54747 70.9898 3.49896C70.5545 3.60921 70.1968 3.7371 69.9037 3.87822ZM144.648 72.1807C144.73 70.5314 144.791 68.2558 144.739 66.2713C145.028 68.5601 144.963 70.7739 144.605 72.8378C144.618 72.6173 144.635 72.4012 144.644 72.1807H144.648Z" fill="#CAD6DA"/>
<path d="M54.2365 35.5908C43.6511 35.5908 35.0439 44.4021 35.0439 55.2331C35.0439 66.0641 43.6554 74.8754 54.2365 74.8754C64.8176 74.8754 73.4334 66.0597 73.4334 55.2331C73.4334 44.4065 64.822 35.5908 54.2365 35.5908ZM54.2365 72.785C44.776 72.785 37.0869 64.9087 37.0869 55.2331C37.0869 45.5575 44.7803 37.6812 54.2365 37.6812C63.6927 37.6812 71.3948 45.5531 71.3948 55.2331C71.3948 64.9131 63.697 72.785 54.2365 72.785Z" fill="#CAD6DA"/>
<path d="M55.8706 41.1738C47.9573 41.1738 41.5225 47.758 41.5225 55.8548C41.5225 63.9516 47.9573 70.5402 55.8706 70.5402C63.7838 70.5402 70.2143 63.9516 70.2143 55.8548C70.2143 47.758 63.7795 41.1738 55.8706 41.1738Z" fill="#CAD6DA"/>
<path d="M5.21396 54.5625C5.21396 54.5625 5.19672 54.5625 5.1881 54.5625C3.48133 54.5625 2.7357 65.667 2.65812 66.9414C2.57622 68.2204 1.9211 79.4306 3.64942 79.5541H3.67528C5.38637 79.5541 6.12769 68.4453 6.20527 67.1752C6.53714 61.9228 6.49404 55.8017 5.6148 54.783C5.47257 54.6154 5.31741 54.5713 5.21396 54.5669V54.5625Z" fill="#CAD6DA"/>
<path d="M100.867 48.2212C95.4274 48.2212 91.001 52.7503 91.001 58.3157C91.001 63.8812 95.4274 68.4059 100.867 68.4059C106.306 68.4059 110.732 63.8768 110.732 58.3157C110.732 52.7547 106.306 48.2212 100.867 48.2212ZM100.867 50.3115C104.297 50.3115 107.189 52.6004 108.241 55.7535C107.146 53.1384 104.608 51.2994 101.655 51.2994C97.7117 51.2994 94.5007 54.5849 94.5007 58.6245C94.5007 62.664 97.7117 65.9495 101.655 65.9495C103.004 65.9495 104.254 65.5438 105.332 64.8735C104.06 65.7819 102.526 66.3244 100.862 66.3244C96.548 66.3244 93.0396 62.7346 93.0396 58.3202C93.0396 53.9057 96.548 50.3115 100.862 50.3115H100.867Z" fill="#CAD6DA"/>
<path d="M82.4629 86.5752C77.0237 86.5752 72.6016 91.1043 72.6016 96.6698C72.6016 102.235 77.0237 106.764 82.4629 106.764C87.9022 106.764 92.3286 102.235 92.3286 96.6698C92.3286 91.1043 87.9022 86.5752 82.4629 86.5752ZM82.4629 88.6655C85.8937 88.6655 88.7814 90.9455 89.8331 94.0943C88.734 91.4836 86.204 89.649 83.256 89.649C79.308 89.649 76.097 92.9345 76.097 96.974C76.097 101.014 79.308 104.299 83.256 104.299C84.605 104.299 85.8506 103.893 86.9281 103.227C85.6566 104.136 84.1223 104.678 82.4586 104.678C78.1486 104.678 74.6402 101.089 74.6402 96.6742C74.6402 92.2597 78.1486 88.67 82.4586 88.67L82.4629 88.6655Z" fill="#CAD6DA"/>
<path d="M120.879 86.6504C119.017 86.6504 117.504 88.1983 117.504 90.1034C117.504 92.0086 119.017 93.5477 120.879 93.5477C122.741 93.5477 124.249 92.0042 124.249 90.1034C124.249 88.2027 122.736 86.6504 120.879 86.6504Z" fill="#CAD6DA"/>
<path d="M61.0501 123.381C59.0244 123.381 57.3779 125.066 57.3779 127.139C57.3779 129.211 59.0244 130.9 61.0501 130.9C63.0758 130.9 64.7222 129.211 64.7222 127.139C64.7222 125.066 63.0758 123.381 61.0501 123.381Z" fill="#CAD6DA"/>
<path d="M44.6938 82.1562C41.8362 82.1562 39.5088 84.5421 39.5088 87.4703C39.5088 90.3986 41.8362 92.7756 44.6938 92.7756C47.5513 92.7756 49.8787 90.3986 49.8787 87.4703C49.8787 84.5421 47.5556 82.1562 44.6938 82.1562Z" fill="#CAD6DA"/>
<path d="M31.708 107.924C31.708 105.851 30.0572 104.162 28.0315 104.162C26.0058 104.162 24.3594 105.851 24.3594 107.924C24.3594 109.997 26.0101 111.686 28.0315 111.686C30.0529 111.686 31.708 110.001 31.708 107.924Z" fill="#CAD6DA"/>
<path d="M31.3673 112.533C30.0096 112.533 28.9062 113.662 28.9062 115.051C28.9062 116.44 30.0096 117.573 31.3673 117.573C32.7249 117.573 33.8283 116.44 33.8283 115.051C33.8283 113.662 32.7249 112.533 31.3673 112.533Z" fill="#CAD6DA"/>
<path d="M119.818 97.0356C118.292 97.0356 117.051 98.3057 117.051 99.8625C117.051 101.419 118.292 102.694 119.818 102.694C121.344 102.694 122.585 101.424 122.585 99.8625C122.585 98.3013 121.344 97.0356 119.818 97.0356Z" fill="#CAD6DA"/>
</svg>
