<svg width="47" height="47" viewBox="0 0 47 47" fill="none" xmlns="http://www.w3.org/2000/svg">
<circle cx="23.06" cy="23.02" r="23.02" fill="white"/>
<path d="M30.6066 19.411C30.1928 18.4565 29.5987 17.5995 28.8444 16.861C28.0901 16.1294 27.2156 15.5512 26.241 15.1471C25.2331 14.729 24.165 14.52 23.0636 14.52C21.9622 14.52 20.8941 14.729 19.8862 15.1471C18.9116 15.5512 18.0371 16.1225 17.2828 16.861C16.5285 17.5995 15.9344 18.4565 15.5206 19.411C15.0933 20.4003 14.873 21.4594 14.873 22.5462C14.873 24.4483 15.5539 26.2737 16.8022 27.7229L16.1347 31.52L19.6859 29.8688C20.7473 30.3426 21.8754 30.5794 23.0569 30.5794C24.1583 30.5794 25.2264 30.3704 26.2343 29.9524C27.2089 29.5483 28.0834 28.977 28.8377 28.2385C29.592 27.4999 30.1861 26.643 30.5999 25.6885C31.0272 24.6991 31.2475 23.6401 31.2475 22.5532C31.2541 21.4594 31.0338 20.4073 30.6066 19.411Z" stroke="#FFA800" stroke-width="1.5"/>
<path d="M26.5146 24.1487C26.1542 23.9675 25.8909 23.856 25.7038 23.7864C25.586 23.7446 25.3088 23.6192 25.2117 23.6958C24.9068 23.9466 24.5811 24.6573 24.2346 24.7896C23.3752 24.6224 22.5783 24.0302 21.9545 23.4241C21.6773 23.1593 21.1645 22.4069 21.0536 22.2048C21.0328 21.9958 21.407 21.7171 21.4902 21.5569C21.9199 21.0692 21.5942 20.7626 21.5387 20.5605C21.4417 20.3515 21.2754 19.9753 21.1298 19.6687C21.0051 19.4667 20.9773 19.1671 20.7556 19.0556C19.8131 18.5679 19.2725 19.5433 19.0508 20.0519C17.7132 23.2917 25.7523 29.4577 27.3878 25.2077C27.471 24.8384 27.4363 24.6991 27.3116 24.5319C27.0621 24.3577 26.771 24.281 26.5146 24.1487Z" fill="#FFA800"/>
</svg>
