<svg width="47" height="47" viewBox="0 0 47 47" fill="none" xmlns="http://www.w3.org/2000/svg">
<circle cx="23.1001" cy="23.02" r="23.02" fill="white"/>
<path d="M23.0997 15.3838C21.0258 15.3838 20.7655 15.3929 19.951 15.4299C19.1381 15.4672 18.5832 15.5959 18.0977 15.7847C17.5954 15.9797 17.1694 16.2407 16.745 16.6653C16.3202 17.0897 16.0593 17.5158 15.8636 18.0179C15.6743 18.5036 15.5455 19.0586 15.5089 19.8713C15.4724 20.6858 15.4629 20.9462 15.4629 23.0201C15.4629 25.0941 15.4721 25.3535 15.509 26.1681C15.5464 26.981 15.6751 27.5359 15.8638 28.0215C16.059 28.5237 16.3199 28.9498 16.7445 29.3742C17.1688 29.799 17.5948 30.0606 18.0967 30.2556C18.5826 30.4444 19.1376 30.5731 19.9504 30.6104C20.7649 30.6474 21.025 30.6565 23.0987 30.6565C25.1727 30.6565 25.4322 30.6474 26.2467 30.6104C27.0596 30.5731 27.6152 30.4444 28.101 30.2556C28.6031 30.0606 29.0285 29.799 29.4528 29.3742C29.8775 28.9498 30.1384 28.5237 30.3341 28.0216C30.5218 27.5359 30.6507 26.9809 30.6889 26.1682C30.7255 25.3537 30.735 25.0941 30.735 23.0201C30.735 20.9462 30.7255 20.686 30.6889 19.8714C30.6507 19.0585 30.5218 18.5036 30.3341 18.018C30.1384 17.5158 29.8775 17.0897 29.4528 16.6653C29.028 16.2405 28.6032 15.9796 28.1005 15.7847C27.6137 15.5959 27.0585 15.4672 26.2456 15.4299C25.4311 15.3929 25.1718 15.3838 23.0973 15.3838H23.0997ZM22.4146 16.7599C22.6179 16.7596 22.8448 16.7599 23.0997 16.7599C25.1385 16.7599 25.3802 16.7672 26.1853 16.8038C26.9298 16.8379 27.3339 16.9623 27.6031 17.0668C27.9594 17.2052 28.2135 17.3707 28.4806 17.6379C28.7479 17.9052 28.9133 18.1598 29.052 18.5161C29.1565 18.785 29.2811 19.1891 29.315 19.9336C29.3516 20.7386 29.3595 20.9804 29.3595 23.0184C29.3595 25.0564 29.3516 25.2982 29.315 26.1032C29.2809 26.8477 29.1565 27.2518 29.052 27.5207C28.9136 27.877 28.7479 28.1308 28.4806 28.3979C28.2133 28.6652 27.9596 28.8306 27.6031 28.969C27.3342 29.074 26.9298 29.1981 26.1853 29.2322C25.3803 29.2688 25.1385 29.2767 23.0997 29.2767C21.0607 29.2767 20.819 29.2688 20.014 29.2322C19.2695 29.1978 18.8654 29.0734 18.5961 28.9689C18.2397 28.8305 17.9852 28.665 17.7179 28.3977C17.4507 28.1305 17.2852 27.8766 17.1465 27.52C17.042 27.2512 16.9174 26.8471 16.8835 26.1025C16.8469 25.2975 16.8396 25.0557 16.8396 23.0165C16.8396 20.9773 16.8469 20.7367 16.8835 19.9317C16.9176 19.1872 17.042 18.7831 17.1465 18.5139C17.2849 18.1575 17.4507 17.903 17.7179 17.6357C17.9852 17.3684 18.2397 17.203 18.5961 17.0643C18.8653 16.9593 19.2695 16.8352 20.014 16.801C20.7185 16.7692 20.9915 16.7596 22.4146 16.758V16.7599ZM27.1758 18.0279C26.6699 18.0279 26.2594 18.4379 26.2594 18.9439C26.2594 19.4498 26.6699 19.8603 27.1758 19.8603C27.6817 19.8603 28.0921 19.4498 28.0921 18.9439C28.0921 18.438 27.6817 18.0276 27.1758 18.0276V18.0279ZM23.0997 19.0986C20.934 19.0986 19.1782 20.8544 19.1782 23.0201C19.1782 25.1859 20.934 26.9409 23.0997 26.9409C25.2653 26.9409 27.0205 25.1859 27.0205 23.0201C27.0205 20.8544 25.2651 19.0986 23.0995 19.0986H23.0997ZM23.0997 20.4747C24.5053 20.4747 25.645 21.6143 25.645 23.0201C25.645 24.4259 24.5053 25.5656 23.0997 25.5656C21.6938 25.5656 20.5543 24.4259 20.5543 23.0201C20.5543 21.6143 21.6938 20.4747 23.0997 20.4747Z" fill="#FFA800"/>
</svg>
