<svg width="47" height="47" viewBox="0 0 47 47" fill="none" xmlns="http://www.w3.org/2000/svg">
<circle cx="23.1401" cy="23.02" r="23.02" fill="white"/>
<path d="M31.0038 15.1715C30.5869 14.7437 29.97 14.5843 29.3948 14.7521L15.9809 18.6528C15.374 18.8214 14.9439 19.3054 14.828 19.9203C14.7096 20.5461 15.1231 21.3405 15.6633 21.6727L19.8575 24.2505C20.2877 24.5148 20.8429 24.4485 21.1989 24.0895L26.0017 19.2568C26.2435 19.0051 26.6436 19.0051 26.8854 19.2568C27.1272 19.5 27.1272 19.8943 26.8854 20.146L22.0743 24.9795C21.7175 25.3377 21.6508 25.8955 21.9134 26.3284L24.4761 30.5647C24.7762 31.068 25.2931 31.3532 25.86 31.3532C25.9267 31.3532 26.0017 31.3532 26.0684 31.3448C26.7187 31.2609 27.2356 30.8163 27.4273 30.1872L31.4039 16.7905C31.579 16.2201 31.4206 15.5993 31.0038 15.1715Z" fill="#FFA800"/>
</svg>
