<svg width="24" height="24" viewBox="0 0 24 24" fill="none" xmlns="http://www.w3.org/2000/svg">
<path d="M11.1434 17.8829H4.6709" stroke="#696984" stroke-width="1.5" stroke-linecap="round" stroke-linejoin="round"/>
<path fill-rule="evenodd" clip-rule="evenodd" d="M15.2051 17.8834C15.2051 19.9252 15.886 20.6052 17.9269 20.6052C19.9678 20.6052 20.6487 19.9252 20.6487 17.8834C20.6487 15.8416 19.9678 15.1616 17.9269 15.1616C15.886 15.1616 15.2051 15.8416 15.2051 17.8834Z" stroke="#696984" stroke-width="1.5" stroke-linecap="round" stroke-linejoin="round"/>
<path d="M14.1768 7.39415H20.6484" stroke="#696984" stroke-width="1.5" stroke-linecap="round" stroke-linejoin="round"/>
<path fill-rule="evenodd" clip-rule="evenodd" d="M10.1154 7.39269C10.1154 5.35179 9.43448 4.6709 7.39358 4.6709C5.35179 4.6709 4.6709 5.35179 4.6709 7.39269C4.6709 9.43448 5.35179 10.1145 7.39358 10.1145C9.43448 10.1145 10.1154 9.43448 10.1154 7.39269Z" stroke="#696984" stroke-width="1.5" stroke-linecap="round" stroke-linejoin="round"/>
</svg>
