<svg width="25" height="25" viewBox="0 0 25 25" fill="none" xmlns="http://www.w3.org/2000/svg">
<path opacity="0.4" d="M11.9358 22.3374C9.65277 20.9273 7.53047 19.2645 5.60774 17.3796C4.25036 16.0338 3.21371 14.3905 2.57701 12.5753C1.43938 9.03523 2.76366 4.98948 6.46096 3.7884C8.41247 3.17553 10.5349 3.55175 12.1669 4.79983C13.7995 3.55315 15.9212 3.17705 17.8728 3.7884C21.5701 4.98948 22.9033 9.03523 21.7657 12.5753C21.1341 14.3888 20.1037 16.0319 18.7527 17.3796C16.8282 19.2625 14.7062 20.9251 12.4246 22.3374L12.1758 22.5L11.9358 22.3374Z" fill="white"/>
<path d="M12.1711 22.5001L11.9361 22.3375C9.65029 20.9275 7.52503 19.2648 5.59917 17.3797C4.23536 16.0357 3.19254 14.3923 2.55068 12.5754C1.42193 9.03532 2.74621 4.98957 6.44351 3.78849C8.39502 3.17562 10.5454 3.55213 12.1711 4.81067V22.5001Z" fill="white"/>
<path d="M18.3906 10.4992C18.1897 10.4863 18.0027 10.3859 17.8732 10.2216C17.7438 10.0572 17.6833 9.8434 17.7061 9.63016C17.7278 8.9278 17.3282 8.28851 16.7119 8.03977C16.3211 7.93309 16.0844 7.50987 16.1822 7.09249C16.275 6.68182 16.6595 6.42647 17.046 6.5189C17.0948 6.527 17.1418 6.54468 17.1845 6.57105C18.4202 7.04658 19.2203 8.32641 19.1566 9.72576C19.1546 9.93785 19.0719 10.14 18.9275 10.2858C18.7831 10.4316 18.5893 10.5087 18.3906 10.4992Z" fill="white"/>
</svg>
