<svg width="25" height="24" viewBox="0 0 25 24" fill="none" xmlns="http://www.w3.org/2000/svg">
<path opacity="0.4" d="M14.5784 5.48976C14.1024 5.40182 13.6652 5.70561 13.5746 6.17029C13.4839 6.63497 13.7887 7.08866 14.2518 7.1796C15.646 7.45141 16.7226 8.53067 16.9955 9.92971V9.93071C17.0732 10.3334 17.4277 10.6262 17.836 10.6262C17.8908 10.6262 17.9456 10.6212 18.0013 10.6112C18.4644 10.5183 18.7692 10.0656 18.6785 9.59994C18.2712 7.51037 16.6628 5.89648 14.5784 5.48976Z" fill="white"/>
<path opacity="0.4" d="M14.516 2.00793C14.2929 1.97595 14.0688 2.04191 13.8906 2.18381C13.7073 2.32771 13.5928 2.53557 13.5679 2.76841C13.5151 3.23908 13.8547 3.66479 14.3248 3.71776C17.5665 4.07951 20.0861 6.60477 20.4506 9.85654C20.4994 10.2922 20.8649 10.621 21.3011 10.621C21.3339 10.621 21.3658 10.619 21.3987 10.615C21.6267 10.59 21.8299 10.4771 21.9733 10.2972C22.1157 10.1174 22.1805 9.89351 22.1546 9.66467C21.7004 5.60746 18.5604 2.45862 14.516 2.00793Z" fill="white"/>
<path fill-rule="evenodd" clip-rule="evenodd" d="M11.1919 12.9724C15.181 16.9604 16.0859 12.3467 18.6258 14.8848C21.0744 17.3328 22.4818 17.8232 19.3794 20.9247C18.9908 21.237 16.5218 24.9943 7.84476 16.3197C-0.833322 7.644 2.92174 5.17244 3.23413 4.78395C6.34402 1.67385 6.82602 3.08938 9.27465 5.53733C11.8145 8.0765 7.20281 8.98441 11.1919 12.9724Z" fill="white"/>
</svg>
