<svg width="77" height="72" viewBox="0 0 77 72" fill="none" xmlns="http://www.w3.org/2000/svg">
<g clip-path="url(#clip0_2449_7812)">
<path d="M74.6456 23.3322C68.9678 7.2198 54.9323 -1.43071 37.0954 0.192858C36.4637 0.251009 35.997 0.811583 36.0527 1.44426C36.1107 2.07927 36.675 2.54215 37.3044 2.48865C54.0243 0.969753 67.1704 9.04574 72.4766 24.0975C73.099 25.8653 73.582 27.654 73.9419 29.445C73.7306 29.3706 73.4891 29.3776 73.2848 29.5078C72.8296 29.7939 72.3698 29.9475 71.8403 30.1242C71.3248 30.2964 70.793 30.4731 70.2148 30.7895C69.8432 30.9942 69.7062 31.4594 69.9083 31.8315C70.0476 32.0874 70.3123 32.2316 70.5817 32.2316C70.7071 32.2316 70.8325 32.2014 70.9486 32.1386C71.4084 31.8874 71.852 31.7385 72.3234 31.5803C72.8946 31.3896 73.4845 31.1919 74.0975 30.8081C74.1277 30.7895 74.1463 30.7569 74.1765 30.7337C75.3748 37.9746 74.4761 45.2109 71.7683 51.3656C71.5965 49.6513 70.8302 47.9463 69.5506 46.5135C66.4226 43.0128 61.6412 42.5848 56.7576 45.3737C51.5813 48.3278 47.1041 54.7081 48.999 60.7139C50.4597 65.3473 53.0072 66.8244 55.2365 67.1174C40.3952 73.107 23.6381 67.9595 13.4227 58.6158C2.23195 48.3836 -0.642949 34.6484 5.5086 21.5016C6.1983 23.7765 7.25723 25.0046 8.34634 25.6303L8.21398 25.963C8.20237 25.9932 8.19076 26.0234 8.18379 26.0537L7.3803 29.1636C7.27348 29.573 7.51964 29.994 7.93067 30.0986C7.99337 30.1149 8.06071 30.1242 8.12341 30.1242C8.46478 30.1242 8.77595 29.894 8.8642 29.5474L9.65607 26.484L9.78844 26.1514C10.0857 26.2049 10.376 26.2281 10.6453 26.2281C10.8125 26.2281 10.9704 26.2188 11.1214 26.2072C11.9644 26.1304 12.8491 25.849 13.7432 25.4094C13.7501 26.2025 14.0125 26.9539 14.2703 27.6866C14.5606 28.51 14.8369 29.2892 14.6883 30.0033C14.6024 30.4196 14.8694 30.8244 15.2851 30.9104C15.3362 30.9221 15.3896 30.9267 15.4407 30.9267C15.796 30.9267 16.1165 30.6778 16.1908 30.315C16.4253 29.1799 16.0491 28.1145 15.7147 27.1725C15.4454 26.4096 15.1899 25.6885 15.2944 25.0628C15.3246 24.879 15.2782 24.7046 15.1922 24.5557C18.3458 22.4181 21.3275 18.5615 22.5142 14.9655L23.2968 15.012C24.2465 15.0678 25.2265 15.126 26.1624 15.2516C26.1972 15.2562 26.232 15.2586 26.2669 15.2586C26.6454 15.2586 26.9752 14.9794 27.0262 14.5933C27.0843 14.1723 26.7894 13.7862 26.3691 13.728C25.3751 13.5908 24.3627 13.5327 23.385 13.4745L22.9043 13.4466C23.0204 12.8162 23.0738 12.2045 23.0483 11.623C23.0274 11.1368 22.9415 10.5646 22.7325 9.98545C23.4338 9.63655 24.1188 9.32951 24.8712 9.22252C25.2915 9.16204 25.5818 8.77359 25.5238 8.35258C25.4634 7.93157 25.0756 7.64081 24.6553 7.69896C23.6405 7.84318 22.7859 8.2386 21.9685 8.64798C21.3507 7.91296 20.394 7.29423 18.931 6.99185C23.0483 4.65651 27.5812 3.27252 32.0027 3.18646C32.639 3.17483 33.143 2.64915 33.1313 2.01182C33.1174 1.37448 32.5903 0.848799 31.9586 0.881364C21.086 1.09303 10.0532 8.11532 4.50308 18.3568C-3.48534 33.1109 -0.733516 48.7953 11.8691 60.3231C19.4512 67.2593 30.4562 71.9998 41.7886 71.9998C48.9549 71.9998 56.2536 70.1041 62.8998 65.666C75.4073 57.3132 80.3489 39.5075 74.6479 23.3322H74.6456ZM16.8062 8.32699C16.8201 8.32699 16.8317 8.3363 16.8457 8.3363C18.8613 8.3363 20.2152 8.85965 20.9304 9.86915C20.942 9.92032 20.9467 9.9715 20.9722 10.0203C21.0233 10.1227 21.0999 10.2041 21.1859 10.2716C21.3833 10.6833 21.497 11.1578 21.5226 11.6997C21.7386 16.5146 15.4384 24.2789 10.989 24.679C8.17682 24.9163 7.04823 22.0762 6.58378 19.3756C9.00353 14.9515 12.6215 11.1438 16.8085 8.32699H16.8062ZM50.5363 60.479C50.5131 60.4045 50.4853 60.3324 50.462 60.2557C49.3659 56.7782 50.8893 52.9449 53.4856 50.0141C53.7503 50.2398 54.1358 50.2747 54.4284 50.0607C56.4139 48.5999 59.5605 48.4441 61.5901 49.7071C62.6258 50.3514 63.7706 51.6145 63.355 53.98C62.995 56.0223 61.3602 57.9901 58.8708 59.3764C56.1793 60.8767 53.107 61.314 51.0426 60.4883C50.8731 60.4208 50.6966 60.4301 50.5363 60.479ZM56.4185 65.6404C54.1427 65.7381 52.4127 64.5704 51.2168 62.163C51.9065 62.3491 52.6496 62.4445 53.4275 62.4445C55.3991 62.4445 57.5889 61.8536 59.6185 60.7232C62.5143 59.1089 64.4278 56.7503 64.8667 54.2498C65.301 51.7819 64.4023 49.6513 62.4005 48.4068C60.6264 47.2997 58.2531 47.0671 56.1282 47.6253C56.5811 47.2973 57.0432 46.988 57.5169 46.7182C59.3956 45.6459 61.2487 45.1132 62.9556 45.1132C65.0711 45.1132 66.9614 45.9296 68.4058 47.5462C69.8061 49.114 70.4679 51.0492 70.2218 52.8566C70.1985 53.0357 70.238 53.2078 70.3216 53.352C68.3129 58.6623 61.474 65.4241 56.4162 65.6451L56.4185 65.6404Z" fill="white"/>
<path d="M20.8068 20.7438L20.5328 20.5251C20.203 20.26 19.72 20.3158 19.4553 20.6461C19.1906 20.9787 19.244 21.4625 19.576 21.7254L19.8524 21.944C20.1016 22.1425 20.3222 22.327 20.5142 22.4976C20.7 22.6604 20.9949 22.921 21.5592 23.4118C21.7055 23.5374 21.8843 23.6002 22.0608 23.6002C22.2745 23.6002 22.4881 23.5118 22.6414 23.335C22.9177 23.014 22.8852 22.5279 22.5647 22.2511C22.0051 21.7649 21.7102 21.5067 21.529 21.3439C21.32 21.1594 21.0801 20.9593 20.8091 20.7438H20.8068Z" fill="white"/>
<path d="M55.183 29.3034C55.6242 29.3034 56.0677 29.2313 56.502 29.0778C59.9481 27.8613 61.1627 24.7072 60.8422 22.1207C60.5171 19.5295 58.592 16.7685 55.0134 16.4428C54.5792 16.4102 54.2192 16.715 54.1798 17.1383V17.1429C53.9592 17.1429 53.7687 17.136 53.5992 17.1336C52.0921 17.0988 51.7902 17.222 50.0532 18.6177C48.214 20.09 47.9748 22.6301 49.4262 25.2492C50.6198 27.4008 52.8933 29.3034 55.183 29.3034ZM51.0123 19.8179C52.2848 18.7968 52.4497 18.6642 53.1905 18.6642C53.2996 18.6642 53.4227 18.6665 53.5621 18.6712C53.7827 18.6758 54.0381 18.6828 54.34 18.6828C54.7348 18.6828 55.0599 18.385 55.1017 18.0013C57.8558 18.3595 59.0936 20.5273 59.3165 22.3137C59.5441 24.1443 58.8103 26.6355 55.9888 27.631C54.1612 28.2777 51.8994 26.5494 50.7661 24.5048C50.362 23.7745 49.1847 21.281 51.0099 19.8202L51.0123 19.8179Z" fill="white"/>
<path d="M32.9964 52.3426C33.1404 52.4612 33.3123 52.5193 33.4864 52.5193C33.707 52.5193 33.9253 52.424 34.0786 52.2426L35.0121 51.1214L35.2118 50.9865C35.5671 50.7539 35.667 50.2771 35.4348 49.9235C35.2025 49.5676 34.7288 49.4676 34.3735 49.7002L34.0623 49.9095C34.0043 49.9491 33.9485 49.9979 33.9044 50.0538L32.8989 51.261C32.6272 51.5866 32.6737 52.0728 32.9988 52.3426H32.9964Z" fill="white"/>
<path d="M23.4894 58.0345C23.3547 58.2788 23.3664 58.6509 23.515 58.8882C23.6613 59.1208 23.9098 59.2487 24.1652 59.2487C24.3045 59.2487 24.4462 59.2115 24.5716 59.1301C24.6482 59.0813 24.7132 59.0231 24.7667 58.9557C25.2706 58.8231 26.5919 58.6789 27.5649 58.6509C27.8993 59.1301 28.2987 59.5581 28.7585 59.8861C29.425 60.3629 30.1426 60.6002 30.8601 60.6002C31.5777 60.6002 32.2674 60.3699 32.9246 59.9093C34.5083 58.7998 35.1052 56.8785 34.4805 54.8944C33.8442 52.8708 32.1397 51.51 30.2308 51.4844C30.1426 51.0239 30.0868 50.575 30.1379 50.126C30.1867 49.705 29.8848 49.3236 29.4645 49.2747C29.0465 49.2259 28.6633 49.5282 28.6146 49.9493C28.5194 50.7703 28.6564 51.5123 28.8189 52.2288C27.3861 52.7126 26.8543 53.7663 26.6616 54.4432C26.4247 55.2689 26.506 56.2226 26.8102 57.1344C25.598 57.1995 23.8378 57.3995 23.4894 58.0299V58.0345ZM28.1362 54.8711C28.3707 54.0477 29.0744 53.5942 30.2262 53.522C30.5048 53.5058 30.7371 53.3429 30.8578 53.1127C31.9493 53.4081 32.7109 54.3897 33.0175 55.3619C33.3426 56.3947 33.2567 57.8043 32.0445 58.6533C31.2503 59.2092 30.4445 59.2045 29.6503 58.637C28.5054 57.8182 27.7971 56.0597 28.1362 54.8711Z" fill="white"/>
<path d="M34.8844 59.1348C34.5245 59.3604 34.4177 59.835 34.6406 60.1932L35.1213 60.9631L35.2003 61.1236C35.3326 61.398 35.6066 61.5585 35.8923 61.5585C36.0037 61.5585 36.1175 61.533 36.2244 61.4818C36.6075 61.298 36.7677 60.8398 36.5843 60.456L36.4891 60.2606C36.4775 60.2327 36.4612 60.2071 36.4473 60.1815L35.9434 59.3767C35.7181 59.0162 35.2421 58.9092 34.8844 59.1325V59.1348Z" fill="white"/>
<path d="M63.8633 30.3266C63.933 30.3266 64.005 30.3173 64.0746 30.2964C67.2027 29.4009 69.7826 28.3588 71.9632 27.1121C72.3301 26.9004 72.4602 26.4329 72.2488 26.063C72.0375 25.6955 71.5684 25.5652 71.2015 25.7769C69.1301 26.9632 66.6616 27.9564 63.6543 28.8194C63.2479 28.9357 63.0111 29.3613 63.1272 29.7684C63.2247 30.1057 63.5312 30.3266 63.8656 30.3266H63.8633Z" fill="white"/>
<path d="M15.7281 44.5805C15.5376 44.2014 15.0778 44.0478 14.6993 44.2362C13.1852 44.9922 11.6851 46.0506 10.2314 47.074C9.49756 47.5904 8.73819 48.123 8.00669 48.5976C7.65139 48.8278 7.54922 49.3023 7.77912 49.6606C7.92542 49.8885 8.17157 50.0118 8.42469 50.0118C8.56635 50.0118 8.71032 49.9722 8.84037 49.8885C9.59741 49.4 10.3661 48.8581 11.1115 48.3324C12.5188 47.3415 13.9725 46.318 15.382 45.6133C15.7606 45.4249 15.9138 44.962 15.7257 44.5828L15.7281 44.5805Z" fill="white"/>
<path d="M14.7439 50.847C14.5767 50.4562 14.1239 50.2748 13.7361 50.4446C12.6771 50.8982 11.6809 51.5122 10.7195 52.1031C10.3921 52.3054 10.067 52.5055 9.73954 52.6985C9.37495 52.9148 9.25419 53.3847 9.46784 53.7499C9.61182 53.9941 9.86726 54.129 10.1297 54.129C10.262 54.129 10.3967 54.0941 10.5198 54.022C10.8542 53.8243 11.1886 53.6196 11.523 53.4126C12.438 52.8497 13.3854 52.2659 14.3422 51.8565C14.73 51.689 14.9111 51.2378 14.7439 50.847Z" fill="white"/>
<path d="M13.3944 55.1271L13.0925 55.4271C12.7952 55.7295 12.7952 56.2157 13.0971 56.5134C13.2457 56.6623 13.4408 56.7367 13.6382 56.7367C13.8356 56.7367 14.033 56.6623 14.1839 56.5111L14.4812 56.211C14.7807 55.911 14.7784 55.4248 14.4812 55.1248C14.1793 54.8247 13.6939 54.827 13.3967 55.1271H13.3944Z" fill="white"/>
</g>
<defs>
<clipPath id="clip0_2449_7812">
<rect width="77" height="72" fill="white"/>
</clipPath>
</defs>
</svg>
