<svg width="78" height="47" viewBox="0 0 78 47" fill="none" xmlns="http://www.w3.org/2000/svg">
<g clip-path="url(#clip0_2449_7826)">
<path d="M77.9058 11.1609C77.5517 9.8899 75.0774 9.67481 65.873 10.1159C64.2184 10.1941 62.7911 10.2636 62.284 10.2288C62.1572 10.2202 62.0414 10.2549 61.9321 10.3049C60.2883 8.27993 58.2927 6.65692 56.625 5.49886C49.0556 0.249603 40.4239 -1.30823 32.3124 1.11217C24.0261 3.58471 17.2501 10.0659 13.72 18.8958C12.4894 21.968 12.6862 25.2575 12.9266 28.4513C12.4785 28.7229 11.7965 29.1075 11.0381 29.5312C4.70365 33.0792 -1.34443 36.7945 0.262123 39.8102C1.67196 42.4544 7.18453 42.1329 12.708 41.5788C13.5386 41.4963 14.2578 41.4224 14.7364 41.4007C15.5998 41.3616 16.4829 41.3007 17.3769 41.2225C17.3266 41.3724 17.3135 41.5354 17.3725 41.6962C18.9769 46.0307 23.4993 47.4126 27.4818 46.8998C27.6829 46.8737 27.8862 46.8433 28.0829 46.8064C32.4086 46.0329 37.0534 42.7977 37.0315 37.5289C37.0315 37.4159 36.9987 37.3116 36.9506 37.216C38.4829 36.7489 40.0129 36.247 41.5343 35.7169C41.5627 35.7538 41.5823 35.7973 41.6173 35.8299C43.8184 37.7831 46.7452 38.6087 49.7441 38.222C50.8916 38.0743 52.0479 37.7505 53.1802 37.2443C57.1168 35.4822 59.6523 31.9929 59.637 28.3536C59.637 28.132 59.5277 27.9408 59.3681 27.8082C63.8206 25.3357 67.7987 22.6611 70.9878 19.8996C71.2567 19.6671 71.6414 19.3673 72.0894 19.0153C72.7955 18.4612 73.602 17.8268 74.3845 17.1489C74.9725 20.2494 73.5452 23.9604 70.9856 25.7224C68.9419 27.1303 66.6184 26.9935 64.4392 25.34C64.1222 25.101 63.6698 25.1597 63.4271 25.4747C63.1845 25.7898 63.2457 26.2395 63.5627 26.4807C65.2567 27.7669 67.0774 28.2993 68.837 28.0733C69.8621 27.9408 70.8632 27.5518 71.8075 26.9022C75.0949 24.6361 76.7561 19.8605 75.5955 16.0256C77.167 14.4613 78.343 12.7448 77.9015 11.1631L77.9058 11.1609ZM14.5135 30.4546C14.5047 30.3264 14.4938 30.196 14.4873 30.0657C17.8862 30.3937 21.5736 30.2503 25.2414 29.7767C31.4184 28.9815 37.5277 27.2737 42.0567 25.3965L43.0446 24.9902C45.2414 24.0885 47.978 22.9674 49.8512 21.8528L50.7255 21.3336C54.3911 19.1587 59.7856 15.9583 62.2556 13.3184C62.4042 13.577 62.5463 13.8399 62.6752 14.1093C58.1965 19.7171 50.8326 24.4253 40.7627 28.1015C35.1933 30.1352 19.6108 34.5784 14.472 30.7457C14.472 30.7457 14.4676 30.7457 14.4676 30.7435C14.5026 30.6523 14.52 30.5545 14.5157 30.4524L14.5135 30.4546ZM15.0599 19.4237C18.4282 11.0067 24.8676 4.83401 32.7277 2.48749C40.4086 0.197458 48.6009 1.68359 55.8009 6.67647C57.3113 7.72371 59.696 9.60745 61.449 12.0604C59.3069 14.5721 53.5037 18.0158 49.9867 20.1016L49.1102 20.6209C47.3288 21.6812 44.649 22.7806 42.496 23.6627L41.5015 24.0712C34.4304 27.0021 23.4337 29.5051 14.5419 28.623C14.5266 28.4883 14.4873 28.3557 14.3955 28.2428C14.3845 28.2297 14.3692 28.2254 14.3583 28.2123C14.1353 25.2205 13.9692 22.1527 15.0643 19.4194L15.0599 19.4237ZM27.8272 45.3919C24.5747 45.9807 20.2206 45.229 18.7299 41.1964C18.7146 41.153 18.684 41.1226 18.6599 41.0835C19.2261 41.0226 19.7856 40.9705 20.3605 40.8966C25.2217 40.2709 30.3976 39.1411 35.5823 37.6245C35.543 42.009 31.5517 44.7227 27.8272 45.3898V45.3919ZM52.5878 35.932C49.9452 37.1139 46.1332 37.4833 43.084 35.165C48.378 33.2378 53.5211 30.9565 58.19 28.4492C58.1594 31.4888 55.9714 34.4176 52.5878 35.9341V35.932ZM71.1955 17.8833C70.7233 18.2527 70.3211 18.5699 70.0392 18.8132C57.5168 29.6594 32.6862 39.1476 14.6709 39.9645C14.1506 39.9884 13.4162 40.0623 12.5616 40.147C9.33098 40.4729 2.61185 41.1486 1.53863 39.1345C0.456658 37.1031 8.65775 32.5078 11.7441 30.7783C12.2578 30.4893 12.6818 30.2525 13.0359 30.0483C13.0468 30.2112 13.0599 30.3764 13.0709 30.5371C13.084 30.7609 13.2042 30.9456 13.3747 31.0673C13.2632 31.3584 13.3397 31.6974 13.6042 31.8929C16.2468 33.8636 20.8654 33.9852 25.5845 33.379C33.0403 32.4209 40.743 29.6398 41.261 29.4486C51.4053 25.742 58.8982 20.9837 63.5627 15.2978C63.6873 15.3195 63.8162 15.3195 63.943 15.2695C64.3146 15.124 64.4982 14.709 64.3517 14.3396C63.978 13.3945 63.4949 12.5015 62.9375 11.665C63.6457 11.6541 64.6687 11.6063 65.943 11.5455C68.7998 11.4086 75.3987 11.0914 76.5419 11.6715C76.8239 13.4727 73.0381 16.4384 71.1955 17.8811V17.8833Z" fill="white"/>
<path d="M18.3128 20.5605C18.4156 20.5909 18.5183 20.5996 18.6166 20.5865C18.8899 20.5518 19.1303 20.3627 19.2156 20.0846C20.6232 15.5285 23.738 11.2243 27.9893 7.96093C28.3041 7.71759 28.3631 7.26784 28.1205 6.95279C27.8778 6.63992 27.4254 6.58126 27.1063 6.82243C22.6232 10.2662 19.3314 14.8245 17.8363 19.661C17.7205 20.0412 17.9325 20.441 18.315 20.5583L18.3128 20.5605Z" fill="white"/>
<path d="M17.9742 23.2721C18.1665 23.246 18.3436 23.1526 18.4551 23.0005C18.5731 22.8549 18.6299 22.6594 18.6037 22.4747C18.5796 22.2813 18.4769 22.1075 18.3239 21.9967C18.0157 21.7599 17.5458 21.8294 17.3141 22.1271C17.1939 22.2726 17.1458 22.466 17.172 22.6594C17.196 22.844 17.2922 23.02 17.4452 23.1308C17.5917 23.2503 17.7862 23.296 17.9742 23.2721Z" fill="white"/>
</g>
<defs>
<clipPath id="clip0_2449_7826">
<rect width="78" height="47" fill="white"/>
</clipPath>
</defs>
</svg>
