<svg width="65" height="60" viewBox="0 0 65 60" fill="none" xmlns="http://www.w3.org/2000/svg">
<g clip-path="url(#clip0_1148_27529)">
<path d="M21.9051 21.6336C21.7323 21.6336 21.5595 21.6099 21.3868 21.5565C20.4574 21.2717 19.9392 20.2926 20.2251 19.3611C24.8599 4.44413 27.0462 0.284717 30.3763 0.0117735C33.9447 -0.27897 36.3515 4.39666 41.4986 14.6617L42.2254 16.1095C42.6603 16.9758 42.3088 18.026 41.439 18.4592C40.5693 18.8923 39.5148 18.5422 39.0799 17.6759L38.3531 16.2281C35.3983 10.3361 32.0563 3.6609 30.6563 3.51256C28.7142 3.92198 24.8539 16.3231 23.585 20.3994C23.3527 21.153 22.6557 21.6336 21.9051 21.6336Z" fill="#CAD6DA"/>
<path d="M18.5808 37.6841C18.3604 37.6841 18.14 37.6426 17.9255 37.5595C0.941258 30.7834 0.303828 27.6268 0.10128 26.5884C-0.164812 25.3028 5.16895 23.0401 16.1026 19.8004C18.5808 19.0647 20.7254 18.4298 21.3331 18.2221C22.2505 17.9076 23.2573 18.3942 23.573 19.3079C23.8887 20.2217 23.4002 21.2245 22.4828 21.539C21.8037 21.7704 19.8318 22.3578 17.1093 23.1647C13.5469 24.2209 7.61938 25.9772 4.60499 26.9919C6.70196 28.6177 11.7954 31.3293 19.2421 34.3079C20.1416 34.6699 20.5824 35.6905 20.225 36.5864C19.945 37.2747 19.2838 37.6901 18.5868 37.6901L18.5808 37.6841Z" fill="#CAD6DA"/>
<path d="M15.8468 60.0001C15.2868 60.0001 14.7686 59.7924 14.3813 59.3949C13.3984 58.3862 13.8333 57.0392 14.2979 55.6093C14.429 55.2058 14.6256 54.5946 14.6494 54.3691C15.0605 49.8478 15.8826 45.3502 16.6809 41.0009C16.9966 39.2564 17.3183 37.5119 17.6102 35.7675C17.771 34.8122 18.6825 34.1654 19.6357 34.3256C20.5948 34.4858 21.2441 35.3877 21.0833 36.343C20.7854 38.1053 20.4637 39.8676 20.142 41.6298C19.3616 45.9079 18.5574 50.3225 18.1583 54.6777C18.1404 54.8735 18.1046 55.0693 18.0629 55.2829C22.4833 52.4704 29.0422 45.9554 32.8489 41.5349C33.4804 40.7991 34.5885 40.7161 35.3272 41.345C36.0659 41.974 36.1493 43.0776 35.5178 43.8193C35.3987 43.9617 23.1624 58.0123 16.5021 59.8992C16.2817 59.9585 16.0613 59.9941 15.8468 59.9941V60.0001Z" fill="#CAD6DA"/>
<path d="M55.6885 53.5915C53.4605 53.5915 50.315 51.7818 46.1389 49.3906C44.733 48.5836 43.2973 47.7589 41.9271 47.0409C41.105 46.6018 39.2642 46.0856 37.6379 45.6287C36.0235 45.1718 34.4924 44.7446 33.4678 44.2877C32.5802 43.8961 32.181 42.8637 32.5742 41.9737C32.9674 41.0896 34.0099 40.6861 34.8975 41.0836C35.6958 41.4396 37.1673 41.8491 38.597 42.2585C40.5629 42.8103 42.4216 43.3324 43.5773 43.9377C44.9832 44.6794 46.4547 45.5219 47.9023 46.3526C50.2197 47.6817 53.5617 49.5983 55.1166 50.0017C54.9438 49.0464 54.1694 46.7146 51.0716 41.321C50.9227 41.0658 50.6069 40.5971 50.2197 40.0215C47.3781 35.7731 46.5083 34.1295 46.9611 32.7707C47.4495 31.3229 49.3618 29.8099 53.937 26.4337C55.9208 24.9741 58.8995 22.7727 60.4722 21.2537C56.9812 20.7612 50.2971 19.9068 46.2402 19.3965C43.2437 19.0108 40.9025 18.7142 40.3842 18.637C39.4251 18.4887 38.7638 17.5927 38.9128 16.6374C39.0617 15.6821 39.9553 15.0294 40.9204 15.1718C41.4327 15.249 43.7322 15.5457 46.6811 15.9195C58.6076 17.4385 64.686 18.6331 64.9163 19.5033C65.5657 22.0904 62.313 24.624 56.028 29.2581C54.0026 30.7474 51.3099 32.7351 50.4699 33.6845C50.9226 34.7525 52.5073 37.12 53.1447 38.0813C53.5915 38.7458 53.9549 39.2976 54.1217 39.5884C58.6671 47.5097 59.6322 50.957 57.8152 52.7608C57.2314 53.3423 56.5225 53.5975 55.6885 53.5975V53.5915Z" fill="#CAD6DA"/>
</g>
<defs>
<clipPath id="clip0_1148_27529">
<rect width="65" height="60" fill="white"/>
</clipPath>
</defs>
</svg>
