<svg width="238" height="144" viewBox="0 0 238 144" fill="none" xmlns="http://www.w3.org/2000/svg">
<g clip-path="url(#clip0_967_22501)">
<path d="M237.714 34.1957C236.633 30.3015 229.083 29.6425 200.998 30.9938C195.949 31.2335 191.594 31.4465 190.047 31.34C189.66 31.3133 189.307 31.4198 188.973 31.5729C183.958 25.3688 177.869 20.3962 172.78 16.8481C149.683 0.765259 123.346 -4.00767 98.5952 3.40801C73.3112 10.9835 52.6359 30.8407 41.8647 57.894C38.1098 67.3067 38.71 77.3851 39.4437 87.1706C38.0764 88.0027 35.9956 89.1809 33.6813 90.479C14.3531 101.35 -4.10127 112.733 0.800786 121.972C5.10259 130.074 21.923 129.088 38.7767 127.391C41.3111 127.138 43.5054 126.912 44.966 126.845C47.6005 126.725 50.2949 126.539 53.0227 126.299C52.8693 126.759 52.8293 127.258 53.0094 127.75C57.9048 141.031 71.7039 145.264 83.8557 143.693C84.4693 143.614 85.0895 143.52 85.6898 143.407C98.8887 141.037 113.061 131.125 112.995 114.983C112.995 114.637 112.895 114.317 112.748 114.024C117.423 112.593 122.092 111.055 126.734 109.431C126.82 109.544 126.88 109.677 126.987 109.777C133.703 115.762 142.634 118.291 151.784 117.106C155.286 116.654 158.814 115.662 162.269 114.111C174.28 108.712 182.017 98.0212 181.97 86.871C181.97 86.192 181.637 85.6062 181.15 85.2002C194.736 77.6247 206.874 69.4302 216.605 60.9694C217.425 60.2571 218.599 59.3385 219.966 58.2601C222.12 56.5626 224.581 54.6188 226.969 52.5419C228.763 62.0411 224.408 73.411 216.598 78.8096C210.362 83.1232 203.273 82.7039 196.623 77.638C195.656 76.9058 194.275 77.0855 193.535 78.0508C192.795 79.016 192.982 80.3939 193.949 81.1329C199.117 85.0737 204.673 86.7046 210.042 86.0123C213.17 85.6062 216.225 84.4147 219.106 82.4243C229.137 75.4812 234.206 60.8496 230.664 49.1003C235.459 44.3074 239.048 39.0485 237.7 34.2024L237.714 34.1957ZM44.2857 93.3081C44.259 92.9154 44.2257 92.516 44.2057 92.1166C54.5767 93.1218 65.8281 92.6824 77.0195 91.2312C95.8674 88.7948 114.509 83.5626 128.328 77.8111L131.342 76.5663C138.045 73.8037 146.395 70.3688 152.111 66.9539L154.779 65.3629C165.964 58.6994 182.424 48.894 189.96 40.8059C190.414 41.5981 190.847 42.4036 191.241 43.229C177.575 60.4102 155.106 74.8355 124.379 86.0988C107.386 92.3296 59.8389 105.943 44.159 94.2002C44.159 94.2002 44.1457 94.2002 44.1457 94.1935C44.2524 93.9139 44.3057 93.6144 44.2924 93.3015L44.2857 93.3081ZM45.9531 59.5116C56.2307 33.7231 75.879 14.8111 99.8624 7.62177C123.299 0.605496 148.296 5.15875 170.265 20.4561C174.874 23.6647 182.15 29.4361 187.499 36.9516C180.963 44.6469 163.256 55.1979 152.525 61.5885L149.85 63.1795C144.414 66.428 136.238 69.7963 129.668 72.499L126.634 73.7505C105.058 82.7305 71.5038 90.3991 44.3724 87.6965C44.3257 87.2837 44.2057 86.8777 43.9256 86.5315C43.8922 86.4916 43.8455 86.4783 43.8122 86.4383C43.1319 77.2719 42.625 67.8725 45.9664 59.4982L45.9531 59.5116ZM84.9095 139.074C74.9853 140.878 61.6997 138.574 57.1511 126.219C57.1044 126.086 57.0111 125.993 56.9377 125.873C58.6651 125.687 60.3725 125.527 62.1266 125.301C76.9595 123.384 92.7527 119.922 108.573 115.276C108.453 128.709 96.2742 137.023 84.9095 139.067V139.074ZM160.461 110.09C152.398 113.711 140.766 114.843 131.462 107.74C147.616 101.836 163.309 94.8459 177.555 87.1639C177.462 96.4768 170.786 105.45 160.461 110.097V110.09ZM217.238 54.7919C215.798 55.9235 214.571 56.8954 213.71 57.641C175.501 90.8717 99.7357 119.942 44.7659 122.445C43.1786 122.518 40.9377 122.745 38.3299 123.004C28.4724 124.003 7.97047 126.073 4.69576 119.902C1.39437 113.678 26.4182 99.5988 35.8355 94.3C37.4028 93.4147 38.6967 92.6891 39.7772 92.0633C39.8105 92.5626 39.8505 93.0685 39.8839 93.5611C39.9239 94.2468 40.2907 94.8126 40.8109 95.1854C40.4708 96.0774 40.7042 97.1158 41.5112 97.715C49.5746 103.753 63.6672 104.125 78.0666 102.268C100.816 99.3326 124.319 90.8118 125.9 90.226C156.853 78.8695 179.716 64.2911 193.949 46.8703C194.329 46.9369 194.722 46.9368 195.109 46.7837C196.243 46.3377 196.803 45.0663 196.356 43.9346C195.216 41.0389 193.742 38.303 192.041 35.7401C194.202 35.7068 197.323 35.5604 201.212 35.374C209.929 34.9546 230.064 33.9827 233.552 35.7601C234.412 41.2786 222.861 50.3651 217.238 54.7852V54.7919Z" fill="#CAD6DA"/>
<path d="M55.8766 62.9935C56.1901 63.0867 56.5036 63.1134 56.8037 63.0734C57.6374 62.9669 58.371 62.3878 58.6311 61.5357C62.9263 47.5764 72.4302 34.3892 85.4024 24.3907C86.3628 23.6452 86.5428 22.2672 85.8025 21.302C85.0622 20.3434 83.6816 20.1637 82.7079 20.9026C69.0288 31.4536 58.9846 45.4196 54.4227 60.2376C54.0692 61.4026 54.7161 62.6274 55.8833 62.9869L55.8766 62.9935Z" fill="#CAD6DA"/>
<path d="M54.8429 71.3012C55.4299 71.2213 55.9701 70.9351 56.3102 70.4691C56.6704 70.0231 56.8438 69.424 56.7637 68.8582C56.6904 68.2657 56.3769 67.7332 55.9101 67.3937C54.9697 66.6681 53.5357 66.8811 52.8288 67.7931C52.4619 68.2391 52.3152 68.8315 52.3952 69.424C52.4686 69.9898 52.7621 70.529 53.2289 70.8685C53.6758 71.2347 54.2694 71.3744 54.8429 71.3012Z" fill="#CAD6DA"/>
</g>
<defs>
<clipPath id="clip0_967_22501">
<rect width="238" height="144" fill="white"/>
</clipPath>
</defs>
</svg>
