<svg width="110" height="102" viewBox="0 0 110 102" fill="none" xmlns="http://www.w3.org/2000/svg">
<g clip-path="url(#clip0_1148_27560)">
<path d="M36.7703 36.46C36.4803 36.46 36.1903 36.42 35.9003 36.33C34.3403 35.85 33.4703 34.2 33.9503 32.63C41.7303 7.49002 45.4003 0.480023 50.9903 0.0200232C56.9803 -0.469977 61.0203 7.41002 69.6603 24.71L70.8803 27.15C71.6103 28.61 71.0203 30.38 69.5603 31.11C68.1003 31.84 66.3303 31.25 65.6003 29.79L64.3803 27.35C59.4203 17.42 53.8103 6.17002 51.4603 5.92002C48.2003 6.61002 41.7203 27.51 39.5903 34.38C39.2003 35.65 38.0303 36.46 36.7703 36.46Z" fill="#E3ECF2"/>
<path d="M31.1902 63.51C30.8202 63.51 30.4502 63.44 30.0902 63.3C1.58022 51.88 0.510215 46.56 0.170215 44.81C-0.276451 42.6433 8.67688 38.83 27.0302 33.37C31.1902 32.13 34.7902 31.06 35.8102 30.71C37.3502 30.18 39.0402 31 39.5702 32.54C40.1002 34.08 39.2802 35.77 37.7402 36.3C36.6002 36.69 33.2902 37.68 28.7202 39.04C22.7402 40.82 12.7902 43.78 7.73022 45.49C11.2502 48.23 19.8002 52.8 32.3002 57.82C33.8102 58.43 34.5502 60.15 33.9502 61.66C33.4802 62.82 32.3702 63.52 31.2002 63.52L31.1902 63.51Z" fill="#E3ECF2"/>
<path d="M26.5997 101.12C25.6597 101.12 24.7897 100.77 24.1397 100.1C22.4897 98.4001 23.2197 96.1301 23.9997 93.7201C24.2197 93.0401 24.5497 92.0101 24.5897 91.6301C25.2797 84.0101 26.6597 76.4301 27.9997 69.1001C28.5297 66.1601 29.0697 63.2201 29.5597 60.2801C29.8297 58.6701 31.3597 57.5801 32.9597 57.8501C34.5697 58.1201 35.6597 59.6401 35.3897 61.2501C34.8897 64.2201 34.3497 67.1902 33.8097 70.1602C32.4997 77.3702 31.1497 84.8102 30.4797 92.1502C30.4497 92.4802 30.3897 92.8101 30.3197 93.1701C37.7397 88.4301 48.7497 77.4501 55.1397 70.0001C56.1997 68.7601 58.0597 68.6201 59.2997 69.6801C60.5397 70.7401 60.6797 72.6001 59.6197 73.8501C59.4197 74.0901 38.8797 97.7701 27.6997 100.95C27.3297 101.05 26.9597 101.11 26.5997 101.11V101.12Z" fill="#E3ECF2"/>
<path d="M93.4798 90.32C89.7398 90.32 84.4598 87.27 77.4498 83.24C75.0898 81.88 72.6798 80.49 70.3798 79.28C68.9998 78.54 65.9098 77.67 63.1798 76.9C60.4698 76.13 57.8998 75.41 56.1798 74.64C54.6898 73.98 54.0198 72.24 54.6798 70.74C55.3398 69.25 57.0898 68.57 58.5798 69.24C59.9198 69.84 62.3898 70.53 64.7898 71.22C68.0898 72.15 71.2098 73.03 73.1498 74.05C75.5098 75.3 77.9798 76.72 80.4098 78.12C84.2998 80.36 89.9098 83.59 92.5198 84.27C92.2298 82.66 90.9298 78.73 85.7298 69.64C85.4798 69.21 84.9498 68.42 84.2998 67.45C79.5298 60.29 78.0698 57.52 78.8298 55.23C79.6498 52.79 82.8598 50.24 90.5398 44.55C93.8698 42.09 98.8698 38.38 101.51 35.82C95.6498 34.99 84.4298 33.55 77.6198 32.69C72.5898 32.04 68.6598 31.54 67.7898 31.41C66.1798 31.16 65.0698 29.65 65.3198 28.04C65.5698 26.43 67.0698 25.33 68.6898 25.57C69.5498 25.7 73.4098 26.2 78.3598 26.83C98.3798 29.39 108.583 31.4033 108.97 32.87C110.06 37.23 104.6 41.5 94.0498 49.31C90.6498 51.82 86.1298 55.17 84.7198 56.77C85.4798 58.57 88.1398 62.56 89.2098 64.18C89.9598 65.3 90.5698 66.23 90.8498 66.72C98.4798 80.07 100.1 85.88 97.0498 88.92C96.0698 89.9 94.8798 90.33 93.4798 90.33V90.32Z" fill="#E3ECF2"/>
</g>
<defs>
<clipPath id="clip0_1148_27560">
<rect width="109.11" height="101.12" fill="white"/>
</clipPath>
</defs>
</svg>
