<svg width="85" height="75" viewBox="0 0 85 75" fill="none" xmlns="http://www.w3.org/2000/svg">
<g clip-path="url(#clip0_1148_27551)">
<path d="M28.6454 27.0418C28.4195 27.0418 28.1935 27.0121 27.9676 26.9453C26.7523 26.5893 26.0746 25.3655 26.4485 24.2011C32.5094 5.55492 35.3684 0.355651 39.7232 0.0144727C44.3896 -0.348957 47.5369 5.49558 54.2677 18.3269L55.2181 20.1366C55.7868 21.2195 55.3272 22.5323 54.1898 23.0737C53.0524 23.6151 51.6735 23.1775 51.1048 22.0947L50.1544 20.2849C46.2904 12.9199 41.9201 4.57588 40.0893 4.39046C37.5497 4.90223 32.5016 20.4036 30.8422 25.499C30.5384 26.441 29.627 27.0418 28.6454 27.0418Z" fill="#CAD6DA"/>
<path d="M24.298 47.1048C24.0098 47.1048 23.7216 47.0529 23.4411 46.949C1.23095 38.4789 0.397388 34.5331 0.132518 33.2351C-0.215449 31.6281 6.75947 28.7998 21.0573 24.7502C24.298 23.8305 27.1025 23.0369 27.8972 22.7773C29.0969 22.3842 30.4134 22.9924 30.8263 24.1346C31.2392 25.2768 30.6004 26.5302 29.4007 26.9233C28.5126 27.2126 25.934 27.9469 22.3738 28.9556C17.7152 30.2758 9.96388 32.4712 6.02199 33.7395C8.76417 35.7717 15.4249 39.1613 25.1628 42.8846C26.3391 43.337 26.9156 44.6127 26.4482 45.7327C26.082 46.593 25.2173 47.1122 24.3058 47.1122L24.298 47.1048Z" fill="#CAD6DA"/>
<path d="M20.7222 75C19.9899 75 19.3121 74.7404 18.8058 74.2435C17.5204 72.9826 18.0891 71.2989 18.6967 69.5115C18.8681 69.0071 19.1252 68.2432 19.1563 67.9613C19.6939 62.3096 20.7689 56.6876 21.8128 51.251C22.2257 49.0704 22.6464 46.8898 23.0281 44.7092C23.2384 43.5151 24.4304 42.7067 25.6768 42.9069C26.931 43.1072 27.7802 44.2346 27.5699 45.4287C27.1803 47.6315 26.7597 49.8343 26.339 52.0372C25.3185 57.3848 24.2668 62.903 23.7448 68.347C23.7214 68.5918 23.6747 68.8365 23.6202 69.1035C29.4006 65.5879 37.9777 57.4441 42.9557 51.9185C43.7815 50.9988 45.2305 50.895 46.1965 51.6812C47.1625 52.4673 47.2715 53.8469 46.4458 54.774C46.2899 54.952 30.2887 72.5153 21.5791 74.8739C21.2909 74.9481 21.0026 74.9926 20.7222 74.9926V75Z" fill="#CAD6DA"/>
<path d="M72.8237 66.9899C69.9101 66.9899 65.7968 64.7277 60.3358 61.7387C58.4973 60.73 56.6199 59.6991 54.8281 58.8016C53.753 58.2528 51.3458 57.6075 49.2191 57.0364C47.1079 56.4653 45.1058 55.9313 43.7659 55.3602C42.6051 54.8706 42.0832 53.5801 42.5973 52.4676C43.1115 51.3624 44.4748 50.8581 45.6355 51.355C46.6794 51.8 48.6036 52.3118 50.4733 52.8236C53.0441 53.5134 55.4747 54.166 56.986 54.9226C58.8245 55.8497 60.7487 56.9029 62.6418 57.9413C65.6722 59.6027 70.0426 61.9983 72.0758 62.5027C71.8499 61.3085 70.8372 58.3937 66.7862 51.6517C66.5915 51.3328 66.1786 50.7468 65.6722 50.0274C61.9562 44.7169 60.8188 42.6624 61.4109 40.9639C62.0497 39.1542 64.5504 37.2629 70.5334 33.0426C73.1275 31.2181 77.0227 28.4664 79.0793 26.5676C74.5142 25.952 65.7735 24.884 60.4683 24.2461C56.5498 23.764 53.4882 23.3932 52.8104 23.2968C51.5562 23.1114 50.6914 21.9914 50.8862 20.7973C51.081 19.6031 52.2495 18.7873 53.5115 18.9653C54.1815 19.0617 57.1886 19.4326 61.0448 19.8998C76.641 21.7986 84.5897 23.2918 84.8909 24.3796C85.74 27.6134 81.4865 30.7805 73.2677 36.5731C70.619 38.4347 67.0978 40.9194 65.9994 42.1061C66.5915 43.4412 68.6637 46.4005 69.4972 47.6021C70.0815 48.4328 70.5567 49.1225 70.7748 49.486C76.7189 59.3876 77.9809 63.6968 75.6048 65.9515C74.8414 66.6784 73.9143 66.9973 72.8237 66.9973V66.9899Z" fill="#CAD6DA"/>
</g>
<defs>
<clipPath id="clip0_1148_27551">
<rect width="85" height="75" fill="white"/>
</clipPath>
</defs>
</svg>
