<svg width="23" height="24" viewBox="0 0 23 24" fill="none" xmlns="http://www.w3.org/2000/svg">
<path fill-rule="evenodd" clip-rule="evenodd" d="M11.5003 3.13525C9.78019 3.13525 8.38574 4.5297 8.38574 6.24984C8.38574 7.96997 9.78019 9.36442 11.5003 9.36442C13.2205 9.36442 14.6149 7.96997 14.6149 6.24984C14.6149 4.5297 13.2205 3.13525 11.5003 3.13525ZM6.94824 6.24984C6.94824 3.73579 8.98628 1.69775 11.5003 1.69775C14.0144 1.69775 16.0524 3.73579 16.0524 6.24984C16.0524 8.76388 14.0144 10.8019 11.5003 10.8019C8.98628 10.8019 6.94824 8.76388 6.94824 6.24984Z" fill="#696984"/>
<path fill-rule="evenodd" clip-rule="evenodd" d="M2.15625 21.5835C2.15625 16.4231 6.3396 12.2397 11.5 12.2397C16.6604 12.2397 20.8437 16.4231 20.8437 21.5835C20.8437 21.9805 20.522 22.3022 20.125 22.3022C19.728 22.3022 19.4062 21.9805 19.4062 21.5835C19.4062 17.217 15.8665 13.6772 11.5 13.6772C7.13351 13.6772 3.59375 17.217 3.59375 21.5835C3.59375 21.9805 3.27195 22.3022 2.875 22.3022C2.47805 22.3022 2.15625 21.9805 2.15625 21.5835Z" fill="#696984"/>
<path fill-rule="evenodd" clip-rule="evenodd" d="M14.8832 17.2418C15.1639 17.5225 15.1639 17.9775 14.8832 18.2582L11.0499 22.0916C10.7692 22.3723 10.3141 22.3723 10.0334 22.0916L8.11677 20.1749C7.83608 19.8942 7.83608 19.4391 8.11677 19.1584C8.39746 18.8777 8.85254 18.8777 9.13323 19.1584L10.5417 20.5669L13.8668 17.2418C14.1475 16.9611 14.6025 16.9611 14.8832 17.2418Z" fill="#696984"/>
</svg>
