<svg width="22" height="22" viewBox="0 0 22 22" fill="none" xmlns="http://www.w3.org/2000/svg">
<path fill-rule="evenodd" clip-rule="evenodd" d="M11 2.521C9.10152 2.521 7.5625 4.06002 7.5625 5.9585C7.5625 7.85698 9.10152 9.396 11 9.396C12.8985 9.396 14.4375 7.85698 14.4375 5.9585C14.4375 4.06002 12.8985 2.521 11 2.521ZM6.1875 5.9585C6.1875 3.30063 8.34213 1.146 11 1.146C13.6579 1.146 15.8125 3.30063 15.8125 5.9585C15.8125 8.61637 13.6579 10.771 11 10.771C8.34213 10.771 6.1875 8.61637 6.1875 5.9585Z" fill="#696984"/>
<path fill-rule="evenodd" clip-rule="evenodd" d="M18.4479 2.52051C17.8784 2.52051 17.4167 2.98221 17.4167 3.55176V12.833C17.4167 13.3353 17.2609 13.7975 16.8802 14.1161C16.5241 14.414 16.081 14.4917 15.7054 14.4954C14.9663 14.5027 14.0885 14.2222 13.4167 13.9798C12.7841 13.7514 12.1734 13.6356 11.7183 13.5774C11.4919 13.5485 11.307 13.5342 11.181 13.5272C11.118 13.5237 11.07 13.522 11.039 13.5212L11.0058 13.5205L11 13.5205C8.33082 13.5205 6.26537 14.5845 4.8643 15.9592C3.44145 17.3553 2.75 19.0214 2.75 20.1663H1.375C1.375 18.5614 2.28772 16.5609 3.90132 14.9777C5.53671 13.3732 7.94001 12.1455 11 12.1455V12.833C11 12.1455 11.0001 12.1455 11.0003 12.1455H11.0006L11.0013 12.1455L11.0031 12.1455L11.008 12.1455L11.0233 12.1456C11.0359 12.1458 11.0532 12.1461 11.075 12.1467C11.1187 12.1478 11.1802 12.15 11.2575 12.1543C11.4118 12.1629 11.6296 12.1799 11.8926 12.2135C12.4161 12.2804 13.1305 12.4146 13.8835 12.6864L13.6501 13.3331L13.8835 12.6864C14.5692 12.9339 15.2309 13.125 15.6919 13.1205C15.9165 13.1183 15.9886 13.0693 15.9977 13.0616C15.9987 13.0608 16.0049 13.0569 16.0139 13.0344C16.0246 13.0075 16.0417 12.9465 16.0417 12.833V3.55176C16.0417 2.22283 17.119 1.14551 18.4479 1.14551C19.7769 1.14551 20.8542 2.22283 20.8542 3.55176V20.1663H19.4792V3.55176C19.4792 2.98221 19.0175 2.52051 18.4479 2.52051Z" fill="#696984"/>
<path fill-rule="evenodd" clip-rule="evenodd" d="M0.229492 20.1665C0.229492 19.7868 0.537296 19.479 0.916992 19.479H21.0837C21.4634 19.479 21.7712 19.7868 21.7712 20.1665C21.7712 20.5462 21.4634 20.854 21.0837 20.854H0.916992C0.537296 20.854 0.229492 20.5462 0.229492 20.1665Z" fill="#696984"/>
</svg>
