<svg width="267" height="266" viewBox="0 0 267 266" fill="none" xmlns="http://www.w3.org/2000/svg">
<g filter="url(#filter0_d_1108_16506)">
<path d="M199.043 200.777C197.291 200.777 195.539 200.135 194.156 198.759C191.482 196.099 191.482 191.697 194.156 189.037C227.441 155.926 227.441 102.087 194.156 69.0673C191.482 66.4074 191.482 62.0049 194.156 59.345C196.83 56.6851 201.255 56.6851 203.929 59.345C242.563 97.7757 242.563 160.329 203.929 198.759C202.546 200.135 200.794 200.777 199.043 200.777Z" fill="white"/>
<path d="M68.6673 200.777C66.9154 200.777 65.1636 200.135 63.7805 198.759C25.1474 160.329 25.1474 97.7757 63.7805 59.345C66.4544 56.6851 70.8802 56.6851 73.5541 59.345C76.228 62.0049 76.228 66.4074 73.5541 69.0673C40.2687 102.178 40.2687 156.018 73.5541 189.037C76.228 191.697 76.228 196.099 73.5541 198.759C72.171 200.135 70.4192 200.777 68.6673 200.777Z" fill="white"/>
<path d="M133.855 227.285C122.329 227.193 111.357 225.358 101.123 221.781C97.5267 220.497 95.5904 216.553 96.8813 212.976C98.1721 209.399 102.045 207.473 105.733 208.757C114.584 211.784 123.989 213.435 133.947 213.435C143.813 213.435 153.31 211.784 162.069 208.757C165.665 207.565 169.63 209.399 170.92 212.976C172.211 216.553 170.275 220.497 166.679 221.781C156.352 225.358 145.38 227.285 133.855 227.285Z" fill="white"/>
<path d="M164.282 49.6229C163.544 49.6229 162.714 49.5312 161.977 49.256C153.217 46.1375 143.721 44.5783 133.855 44.5783C123.989 44.5783 114.584 46.2293 105.733 49.256C102.045 50.4484 98.1721 48.614 96.8813 45.0369C95.5904 41.4598 97.5267 37.5159 101.123 36.2318C111.449 32.6547 122.422 30.8203 133.855 30.8203C145.288 30.8203 156.352 32.6547 166.587 36.2318C170.183 37.5159 172.119 41.4598 170.828 45.0369C169.814 47.8802 167.14 49.6229 164.282 49.6229Z" fill="white"/>
<path d="M103.797 129.052V113.735C103.797 94.6573 117.351 86.8611 133.947 96.4L147.317 104.104L160.686 111.809C177.283 121.348 177.283 136.94 160.686 146.479L147.317 154.184L133.947 161.888C117.351 171.427 103.797 163.631 103.797 144.553V129.052Z" fill="white"/>
</g>
<defs>
<filter id="filter0_d_1108_16506" x="-10.7891" y="-11.0117" width="289.288" height="288.128" filterUnits="userSpaceOnUse" color-interpolation-filters="sRGB">
<feFlood flood-opacity="0" result="BackgroundImageFix"/>
<feColorMatrix in="SourceAlpha" type="matrix" values="0 0 0 0 0 0 0 0 0 0 0 0 0 0 0 0 0 0 127 0" result="hardAlpha"/>
<feOffset dy="4"/>
<feGaussianBlur stdDeviation="17"/>
<feComposite in2="hardAlpha" operator="out"/>
<feColorMatrix type="matrix" values="0 0 0 0 0 0 0 0 0 0 0 0 0 0 0 0 0 0 0.4 0"/>
<feBlend mode="normal" in2="BackgroundImageFix" result="effect1_dropShadow_1108_16506"/>
<feBlend mode="normal" in="SourceGraphic" in2="effect1_dropShadow_1108_16506" result="shape"/>
</filter>
</defs>
</svg>
