<svg width="63" height="48" viewBox="0 0 63 48" fill="none" xmlns="http://www.w3.org/2000/svg">
<g clip-path="url(#clip0_2376_7168)">
<path d="M6.88744 15.6173C13.5618 14.2653 18.5676 12.4626 23.8768 11.411C29.3376 10.3595 34.7984 9.00743 40.2593 7.95585C47.3887 6.45359 53.608 5.10157 62.4061 3.44909C63.1645 5.85269 60.2824 12.6128 59.524 15.1667C58.1587 19.2227 57.0969 23.4291 56.3385 27.6354C55.4283 32.743 53.608 33.6444 48.6023 34.9964C44.3549 36.1982 40.1076 37.2498 35.8603 38.4516C31.7646 39.5032 27.5173 40.4045 23.4217 40.8552C20.9946 41.1557 20.8429 41.4561 19.326 39.8036C17.2024 37.7005 15.9889 34.9964 14.6236 32.4426C10.528 25.0815 7.64589 17.1196 3.85364 9.60833C2.9435 7.95585 2.18505 6.30337 1.2749 4.65089C-0.0903087 2.24728 0.213072 2.24728 2.33674 0.44458C3.85364 3.74954 7.94928 11.7115 9.76956 14.8662" fill="white"/>
<path d="M7.00849 16.05C10.643 15.3048 14.2107 14.3194 17.7846 13.3519C21.3584 12.3845 24.8351 11.7054 28.3847 10.9483C35.6658 9.39197 42.9409 7.82963 50.2281 6.31536C54.3176 5.46809 58.4193 4.65687 62.5211 3.88171L61.9628 3.56924C62.2723 4.63884 61.9628 5.8767 61.708 6.92828C61.3682 8.36443 60.901 9.77054 60.4156 11.1706C59.3416 14.2713 58.2737 17.3599 57.4364 20.5327C56.8782 22.6539 56.3988 24.7991 55.9923 26.9563C55.7314 28.3504 55.4887 29.7926 54.7788 31.0485C53.5713 33.1756 51.0957 33.8426 48.8811 34.4556C44.5003 35.6634 40.1194 36.8472 35.7265 38.0249C31.3335 39.2027 27.1833 39.8937 22.8328 40.4886C22.2928 40.5607 21.686 40.723 21.14 40.6328C20.5939 40.5427 20.2055 40.092 19.8536 39.7255C18.5066 38.3194 17.4508 36.7931 16.5164 35.0925C14.5141 31.433 12.6089 27.7255 10.8857 23.9338C8.90765 19.5953 7.06917 15.1847 4.98191 10.8942C3.88974 8.64685 2.73689 6.40549 1.53551 4.2122C1.26246 3.71946 0.704243 2.95031 0.96515 2.36143C1.24426 1.72447 2.1362 1.20169 2.64588 0.769038L1.9299 0.678903C4.18705 5.57625 6.67477 10.4255 9.36272 15.1005C9.65397 15.6053 10.4367 15.1486 10.1515 14.6439C7.4757 9.96283 4.98191 5.11355 2.73082 0.216209C2.59734 -0.0662148 2.21508 -0.0421788 2.01485 0.126074C1.15931 0.847155 -0.199831 1.6764 0.0246703 2.97435C0.146022 3.65336 0.552552 4.28431 0.880203 4.8792C1.44449 5.90674 1.96631 6.96433 2.50026 8.0099C4.59965 12.1321 6.52308 16.3083 8.3919 20.5387C10.2607 24.769 12.1902 28.8492 14.3503 32.8872C15.2908 34.6479 16.1524 36.4626 17.3113 38.097C17.8634 38.8782 18.4884 39.5873 19.1498 40.2783C19.5684 40.717 20.0174 41.1917 20.5999 41.408C21.0671 41.5823 21.5586 41.5462 22.044 41.4921C22.9724 41.384 23.8947 41.2578 24.8169 41.1376C27.1469 40.8311 29.4526 40.4045 31.7461 39.8997C36.3818 38.8842 40.9507 37.5442 45.5317 36.3124C47.4552 35.7956 49.415 35.3209 51.2899 34.6599C52.376 34.2753 53.4439 33.8006 54.3176 33.0435C56.6597 31.0184 56.775 27.4611 57.3757 24.6729C58.2859 20.4606 59.5479 16.3564 60.9799 12.2943C61.5563 10.6659 62.1206 9.02542 62.5332 7.34891C62.8426 6.09302 63.2006 4.61481 62.8305 3.33489C62.7577 3.08852 62.515 2.97435 62.2723 3.02242C55.2642 4.33839 48.2925 5.80459 41.3208 7.2768C37.4133 8.10003 33.4997 8.91726 29.5982 9.77054C25.9576 10.5637 22.2989 11.2247 18.6947 12.1802C14.7265 13.2317 10.7825 14.3674 6.75365 15.1907C6.18329 15.3048 6.426 16.1761 6.99635 16.062L7.00849 16.05Z" fill="#261D2A"/>
<path d="M22.5663 40.8553C17.342 42.0571 19.672 48.2464 23.1245 47.5073C26.8561 46.678 26.4859 40.7591 22.5663 40.8553Z" fill="white"/>
<path d="M22.4444 40.4226C20.8547 40.8012 19.3742 41.8347 19.1012 43.5232C18.8888 44.8633 19.3985 46.3114 20.4421 47.2008C21.6071 48.1923 23.2393 48.2704 24.5074 47.4051C25.7755 46.5398 26.352 44.9294 26.1153 43.4211C25.8362 41.6424 24.3861 40.3745 22.5597 40.4046C21.9772 40.4106 21.9712 41.3119 22.5597 41.3059C23.8096 41.2879 24.7987 42.021 25.1384 43.2048C25.454 44.3104 25.187 45.6024 24.3193 46.4076C23.8885 46.8102 23.2636 47.0806 22.6993 47.1106C22.1714 47.1407 21.7284 47.0025 21.2794 46.708C20.43 46.1492 19.9264 45.0495 19.9506 44.04C19.9931 42.5378 21.2552 41.6184 22.675 41.2819C23.2453 41.1497 23.0026 40.2784 22.4323 40.4106L22.4444 40.4226Z" fill="#261D2A"/>
<path d="M52.2977 34.0952C47.0735 35.297 49.4035 41.4862 52.8559 40.7471C56.5875 39.9179 56.2174 33.999 52.2977 34.0952Z" fill="white"/>
<path d="M52.1759 33.6626C50.5862 34.0412 49.1057 35.0747 48.8326 36.7632C48.6203 38.1033 49.1299 39.5514 50.1736 40.4408C51.3385 41.4322 52.9707 41.5104 54.2389 40.6451C55.507 39.7798 56.0834 38.1693 55.8468 36.6611C55.5677 34.8824 54.1175 33.6145 52.2912 33.6446C51.7087 33.6506 51.7026 34.5519 52.2912 34.5459C53.5411 34.5279 54.5301 35.261 54.8699 36.4448C55.1854 37.5504 54.9184 38.8424 54.0508 39.6476C53.62 40.0502 52.995 40.3206 52.4307 40.3506C51.9028 40.3807 51.4599 40.2425 51.0109 39.948C50.1614 39.3892 49.6578 38.2895 49.6821 37.28C49.7246 35.7778 50.9866 34.8584 52.4064 34.5219C52.9768 34.3897 52.7341 33.5184 52.1637 33.6506L52.1759 33.6626Z" fill="#261D2A"/>
<path d="M9.46582 21.4762C15.0784 20.5748 16.1402 19.8237 19.6291 19.0726C26.9102 17.4201 50.4222 11.7115 61.4956 9.15771" fill="white"/>
<path d="M9.58674 21.9089C11.5951 21.5844 13.5792 21.1818 15.5391 20.6289C16.971 20.2263 18.3908 19.8117 19.841 19.4812C22.444 18.8983 25.0409 18.2734 27.6379 17.6545C35.2103 15.8578 42.7826 14.0371 50.355 12.2344C54.1048 11.345 57.8606 10.4497 61.6165 9.58438C62.1869 9.45218 61.9441 8.58087 61.3738 8.71307C54.1837 10.3716 47.0118 12.0961 39.8398 13.8147C33.3414 15.365 26.8552 16.9394 20.3446 18.4417C16.6616 19.2889 13.0877 20.4306 9.3501 21.0376C8.77368 21.1337 9.01638 21.999 9.59281 21.9089H9.58674Z" fill="#261D2A"/>
<path d="M13.1064 28.3865C16.2919 28.3865 19.7808 26.7341 22.9663 25.9829C27.3653 24.9314 31.7643 23.7296 36.3151 22.8282C40.5624 21.9269 44.9614 21.1757 49.3604 20.2744C52.3942 19.8237 55.2763 18.4717 58.3101 18.021" fill="white"/>
<path d="M13.1063 28.8373C15.8732 28.8013 18.4822 27.7737 21.0913 26.9745C24.0038 26.0792 27.0254 25.4422 29.9864 24.7152C36.0965 23.2189 42.2855 22.1493 48.4562 20.9175C50.137 20.581 51.7813 20.2445 53.4195 19.7457C55.0578 19.247 56.7203 18.7242 58.4314 18.4538C59.0078 18.3636 58.7651 17.4923 58.1887 17.5825C55.2277 18.0512 52.4609 19.265 49.512 19.7938C46.5631 20.3226 43.3959 20.9655 40.3378 21.5544C34.2944 22.7202 28.2996 24.1203 22.3473 25.6646C19.2892 26.4578 16.31 27.8879 13.1003 27.93C12.5178 27.936 12.5117 28.8373 13.1003 28.8313L13.1063 28.8373Z" fill="#261D2A"/>
<path d="M16.7471 35.8977C23.8765 34.9963 31.3093 32.4425 38.2871 30.4896C42.0793 29.438 45.8716 28.3864 49.6639 27.4851C51.6358 27.0344 54.973 26.8842 56.4899 25.6824" fill="white"/>
<path d="M16.7468 36.3484C22.42 35.6153 27.9112 33.9989 33.3781 32.3825C36.1631 31.5592 38.9603 30.76 41.7635 29.9969C44.5668 29.2338 47.4307 28.3564 50.3067 27.8096C52.4061 27.413 54.9485 27.395 56.7202 26.067C57.1813 25.7245 56.7263 24.9373 56.2591 25.2858C54.6875 26.4636 52.4061 26.5357 50.5312 26.8542C47.8372 27.3109 45.1735 28.1281 42.5402 28.8432C37.0733 30.3274 31.6731 32.034 26.2001 33.4821C23.0874 34.3054 19.9444 35.0264 16.7468 35.4351C16.1764 35.5072 16.1643 36.4085 16.7468 36.3364V36.3484Z" fill="#261D2A"/>
<path d="M28.1239 39.9539C27.5171 34.696 24.3316 29.2879 22.3596 24.4807C21.2978 21.4762 19.6292 15.1667 17.6572 13.364" fill="white"/>
<path d="M28.5788 39.954C28.0327 35.5133 26.0061 31.4452 24.1495 27.4192C23.3667 25.7246 22.675 24.0361 22.1047 22.2634C21.5647 20.5929 21.0307 18.9164 20.3815 17.282C19.799 15.8098 19.1558 14.1633 17.9787 13.0456C17.554 12.643 16.9108 13.28 17.3355 13.6826C18.7007 14.9805 19.3621 17.0717 19.981 18.7902C20.6606 20.6651 21.1885 22.5879 21.868 24.4627C22.76 26.9204 24.0342 29.2579 25.0899 31.6555C26.2549 34.3055 27.3107 37.0697 27.6687 39.954C27.7415 40.5248 28.6516 40.5308 28.5788 39.954Z" fill="#261D2A"/>
<path d="M37.983 37.5502C35.2525 28.6869 34.1907 18.9223 30.8535 10.2092L37.983 37.5502Z" fill="white"/>
<path d="M38.4202 37.43C35.6595 28.4165 34.6522 18.9343 31.2908 10.089C31.0845 9.5482 30.2047 9.78255 30.411 10.3294C33.7724 19.1746 34.7797 28.6569 37.5404 37.6704C37.7103 38.2232 38.5901 37.9889 38.4202 37.43Z" fill="#261D2A"/>
<path d="M48.7529 34.6961C48.6012 29.5884 47.691 24.3305 46.9326 19.3731C46.3258 15.9179 46.4775 9.90889 45.1123 7.20483" fill="white"/>
<path d="M49.2084 34.696C49.0324 29.2338 47.9766 23.8918 47.2546 18.4897C46.9815 16.4526 46.9087 14.3915 46.6964 12.3484C46.5083 10.5397 46.308 8.63488 45.501 6.97639C45.2462 6.45361 44.4635 6.91029 44.7123 7.43308C45.5375 9.12762 45.677 11.1647 45.8469 13.0094C46.0168 14.8542 46.1139 16.8792 46.3808 18.7961C47.1211 24.0901 48.1223 29.3419 48.2921 34.696C48.3103 35.2728 49.2205 35.2788 49.2023 34.696H49.2084Z" fill="#261D2A"/>
</g>
<defs>
<clipPath id="clip0_2376_7168">
<rect width="63" height="48" fill="white"/>
</clipPath>
</defs>
</svg>
