<svg width="84" height="104" viewBox="0 0 84 104" fill="none" xmlns="http://www.w3.org/2000/svg">
<g clip-path="url(#clip0_2376_7140)">
<path d="M40.0973 5.58691C33.2167 9.61829 12.3377 18.1553 0.711914 22.8981C0.949175 32.6208 7.59249 90.0087 9.96511 103.288C25.1498 99.2571 78.7709 73.8832 83.2789 71.5118C81.618 67.4804 46.9779 16.9696 40.0973 5.58691Z" fill="white"/>
<path d="M39.7365 4.97027C35.5987 7.37961 31.1382 9.28622 26.7631 11.2118C20.9834 13.7634 15.1468 16.2012 9.31013 18.6106C6.38708 19.8152 3.45452 21.0104 0.531465 22.2056C0.237261 22.3289 0 22.5566 0 22.898C0.0949045 26.4267 0.474523 29.9553 0.806689 33.4745C1.34764 39.2038 1.95503 44.9331 2.5814 50.6529C3.99548 63.5628 5.51395 76.4632 7.22223 89.3351C7.8486 94.0589 8.45599 98.7922 9.29115 103.478C9.35759 103.858 9.82262 104.066 10.1643 103.971C14.5204 102.805 18.7436 101.116 22.9289 99.4467C28.7561 97.1228 34.5358 94.6565 40.287 92.1428C51.7514 87.1345 63.121 81.9174 74.4241 76.577C77.5085 75.1162 80.6309 73.7029 83.6488 72.1188C83.8956 71.986 84.0949 71.5876 83.9715 71.3125C82.9181 68.7988 81.1434 66.4843 79.6818 64.2173C76.6829 59.5693 73.6174 54.9688 70.5615 50.3683C63.2729 39.4124 55.9177 28.5135 48.667 17.5292C45.9812 13.4599 43.248 9.40004 40.7235 5.2169C40.249 4.43908 39.0153 5.1505 39.4898 5.9378C44.8614 14.8068 50.8024 23.3439 56.5536 31.9568C63.5101 42.3719 70.533 52.7587 77.3662 63.2592C78.562 65.0994 79.7578 66.9491 80.9251 68.8178C81.3142 69.4438 81.6938 70.0699 82.0639 70.7054C82.1873 70.9236 82.3107 71.1323 82.4246 71.3504C82.4815 71.4453 82.6903 71.9006 82.5954 71.6824L82.9181 70.8762C75.601 74.7178 67.9706 78.0473 60.4637 81.5C48.5437 86.9827 36.5667 92.3895 24.4 97.3125C19.6168 99.2475 14.7766 101.249 9.77517 102.577L10.6483 103.07C8.86408 93.063 7.77268 82.9134 6.5579 72.8302C5.03943 60.2713 3.59688 47.7029 2.3821 35.1155C1.993 31.0462 1.52796 26.9579 1.42357 22.8696L0.901593 23.5525C11.9959 19.0279 23.1472 14.5602 33.9948 9.45696C36.1776 8.43251 38.3699 7.37961 40.4578 6.16546C41.2455 5.70066 40.5337 4.47702 39.7365 4.93233V4.97027Z" fill="#261D2A"/>
<path d="M14.0747 23.9035C9.68064 25.241 11.2086 31.5394 15.4129 30.3916C19.8069 29.2439 19.0477 22.1771 14.0747 23.9035Z" fill="white"/>
<path d="M13.8849 23.2206C12.0723 23.7898 10.7341 25.3075 10.7151 27.252C10.6961 28.912 11.6737 30.5245 13.287 31.0652C15.0238 31.6533 17.0642 30.8091 18.1177 29.3863C19.0667 28.1152 19.2755 26.3414 18.6302 24.8901C18.279 24.0933 17.6337 23.4767 16.827 23.1542C15.8874 22.7748 14.8245 22.8981 13.8849 23.2111C13.5243 23.3345 13.2775 23.7044 13.3914 24.0838C13.4863 24.4348 13.9039 24.7004 14.2645 24.5771C14.4638 24.5107 14.6726 24.4538 14.8719 24.4063C14.9573 24.3874 15.0523 24.3684 15.1472 24.3589C15.2705 24.3399 14.9763 24.3684 15.1851 24.3589C15.2421 24.3589 15.2895 24.3589 15.3465 24.3494C15.5173 24.3494 15.6881 24.3494 15.8589 24.3589C15.8969 24.3589 15.9918 24.3874 15.84 24.3589C15.8779 24.3589 15.9159 24.3684 15.9538 24.3779C16.0393 24.3968 16.1247 24.4158 16.2196 24.4443C16.286 24.4632 16.3524 24.4917 16.4189 24.5107C16.267 24.4538 16.4189 24.5107 16.4853 24.5486C16.5517 24.5866 16.5992 24.615 16.6561 24.6435C16.7036 24.6719 16.9029 24.8332 16.751 24.7004C16.8459 24.7857 16.9503 24.8711 17.0358 24.966C17.0547 24.9849 17.0737 25.0134 17.1022 25.0419C17.2161 25.1557 17.0358 24.947 17.1022 25.0324C17.1402 25.0893 17.1876 25.1557 17.2256 25.2126C17.3015 25.3359 17.3584 25.4592 17.4249 25.5825C17.4628 25.6679 17.3774 25.4592 17.4059 25.5541C17.4154 25.5825 17.4344 25.6205 17.4438 25.6489C17.4723 25.7248 17.5008 25.8102 17.5198 25.8861C17.5388 25.9525 17.5482 26.0189 17.5672 26.0853C17.5767 26.1327 17.6147 26.3793 17.5862 26.1706C17.6052 26.3224 17.6147 26.4837 17.6147 26.6354C17.6147 26.7777 17.5957 26.92 17.5957 27.0623C17.5957 27.1951 17.5957 27.0623 17.5957 27.0338C17.5957 27.0718 17.5862 27.1002 17.5767 27.1382C17.5577 27.2235 17.5388 27.3184 17.5198 27.4038C17.4818 27.5461 17.4438 27.6789 17.3964 27.8211C17.3869 27.8591 17.3679 27.8875 17.3584 27.9255C17.292 28.0962 17.4059 27.8306 17.3584 27.9255C17.3205 28.0014 17.292 28.0772 17.254 28.1436C17.1781 28.2859 17.1022 28.4187 17.0073 28.542C16.9883 28.5705 16.9598 28.599 16.9409 28.6369C16.8839 28.7223 17.0168 28.5515 16.9409 28.6274C16.8744 28.7033 16.8175 28.7697 16.751 28.8361C16.6372 28.9499 16.5138 29.0637 16.3904 29.1681C16.5138 29.0732 16.324 29.206 16.2955 29.2345C16.2101 29.2914 16.1247 29.3483 16.0393 29.3957C15.9633 29.4337 15.8969 29.4716 15.821 29.5096C15.783 29.5285 15.7451 29.5475 15.7071 29.5665C15.7356 29.557 15.8305 29.5191 15.7071 29.5665C15.5173 29.6329 15.318 29.6993 15.1282 29.7467C15.0333 29.7657 14.9479 29.7847 14.853 29.8036C14.7106 29.8321 14.815 29.8036 14.8435 29.8036C14.796 29.8036 14.758 29.8036 14.7106 29.8131C14.5208 29.8226 14.3405 29.8131 14.1507 29.8131C14.3215 29.8226 14.0652 29.7941 14.0178 29.7847C13.9419 29.7657 13.8659 29.7467 13.7995 29.7277C13.7331 29.7088 13.6572 29.6803 13.5907 29.6519C13.4863 29.6139 13.7426 29.7277 13.5907 29.6519C13.5528 29.6329 13.5053 29.6139 13.4673 29.5855C13.4009 29.5475 13.344 29.5096 13.2775 29.4716C13.2396 29.4432 13.0498 29.2914 13.1826 29.4052C13.0593 29.3009 12.9454 29.1871 12.8315 29.0732C12.803 29.0353 12.6701 28.874 12.7745 29.0068C12.7366 28.9499 12.6891 28.893 12.6512 28.8266C12.5658 28.6843 12.4898 28.542 12.4234 28.3998C12.4898 28.542 12.4139 28.3713 12.3949 28.3144C12.3665 28.248 12.3475 28.1721 12.3285 28.1057C12.281 27.9444 12.2526 27.7832 12.2241 27.6219C12.2526 27.8022 12.2241 27.5366 12.2241 27.4797C12.2241 27.3848 12.2241 27.2899 12.2241 27.2046C12.2241 27.1192 12.2336 27.0149 12.2431 26.92C12.2431 26.8821 12.2621 26.7872 12.2431 26.939C12.2431 26.8915 12.2621 26.8441 12.2715 26.7967C12.3095 26.6165 12.357 26.4457 12.4139 26.275C12.4234 26.237 12.4424 26.1991 12.4519 26.1706C12.3854 26.3319 12.4614 26.1517 12.4708 26.1327C12.5183 26.0473 12.5563 25.962 12.6132 25.8766C12.6701 25.7912 12.7176 25.7059 12.7745 25.63C12.7935 25.611 12.86 25.5256 12.7745 25.63C12.803 25.592 12.841 25.5541 12.8694 25.5161C13.0023 25.3644 13.1447 25.2316 13.2965 25.1083C13.2016 25.1841 13.2965 25.1083 13.306 25.1083C13.363 25.0703 13.4104 25.0324 13.4673 24.9944C13.5623 24.9375 13.6666 24.8806 13.7616 24.8237C13.9988 24.7004 14.0558 24.6814 14.3405 24.596C15.2136 24.321 14.8435 22.9455 13.9609 23.2206H13.8849Z" fill="#261D2A"/>
<path d="M32.106 17.5007C27.7119 18.8381 29.2398 25.1366 33.4441 23.9888C37.8382 22.841 37.079 15.7743 32.106 17.5007Z" fill="white"/>
<path d="M31.9162 16.8178C30.1035 17.3869 28.7653 18.9046 28.7464 20.8492C28.7274 22.5091 29.7049 24.1217 31.3183 24.6624C33.055 25.2505 35.0955 24.4063 36.1489 22.9834C37.098 21.7124 37.3068 19.9386 36.6614 18.4873C36.3103 17.6905 35.6649 17.0739 34.8582 16.7514C33.9187 16.372 32.8557 16.4953 31.9162 16.8083C31.5555 16.9316 31.3088 17.3016 31.4227 17.681C31.5176 18.0319 31.9352 18.2975 32.2958 18.1742C32.4951 18.1078 32.7039 18.0509 32.9032 18.0035C32.9886 17.9845 33.0835 17.9656 33.1784 17.9561C33.3018 17.9371 33.0076 17.9656 33.2164 17.9561C33.2733 17.9561 33.3208 17.9561 33.3777 17.9466C33.5485 17.9466 33.7194 17.9466 33.8902 17.9561C33.9282 17.9561 34.0231 17.9845 33.8712 17.9561C33.9092 17.9561 33.9471 17.9656 33.9851 17.975C34.0705 17.994 34.1559 18.013 34.2508 18.0414C34.3173 18.0604 34.3837 18.0889 34.4501 18.1078C34.2983 18.0509 34.4501 18.1078 34.5166 18.1458C34.583 18.1837 34.6304 18.2122 34.6874 18.2406C34.7348 18.2691 34.9341 18.4303 34.7823 18.2975C34.8772 18.3829 34.9816 18.4683 35.067 18.5631C35.086 18.5821 35.105 18.6106 35.1334 18.639C35.2473 18.7529 35.067 18.5442 35.1334 18.6295C35.1714 18.6865 35.2189 18.7529 35.2568 18.8098C35.3327 18.9331 35.3897 19.0564 35.4561 19.1797C35.4941 19.2651 35.4087 19.0564 35.4371 19.1513C35.4466 19.1797 35.4656 19.2176 35.4751 19.2461C35.5036 19.322 35.532 19.4074 35.551 19.4832C35.57 19.5496 35.5795 19.616 35.5985 19.6824C35.608 19.7299 35.6459 19.9765 35.6175 19.7678C35.6364 19.9196 35.6459 20.0808 35.6459 20.2326C35.6459 20.3749 35.6269 20.5172 35.6269 20.6595C35.6269 20.7923 35.6269 20.6595 35.6269 20.631C35.6269 20.6689 35.6175 20.6974 35.608 20.7353C35.589 20.8207 35.57 20.9156 35.551 21.0009C35.5131 21.1432 35.4751 21.276 35.4276 21.4183C35.4182 21.4562 35.3992 21.4847 35.3897 21.5226C35.3232 21.6934 35.4371 21.4278 35.3897 21.5226C35.3517 21.5985 35.3232 21.6744 35.2853 21.7408C35.2094 21.8831 35.1334 22.0159 35.0385 22.1392C35.0196 22.1677 34.9911 22.1961 34.9721 22.2341C34.9152 22.3194 35.048 22.1487 34.9721 22.2246C34.9057 22.3005 34.8487 22.3669 34.7823 22.4333C34.6684 22.5471 34.545 22.6609 34.4217 22.7653C34.545 22.6704 34.3552 22.8032 34.3267 22.8317C34.2413 22.8886 34.1559 22.9455 34.0705 22.9929C33.9946 23.0309 33.9282 23.0688 33.8522 23.1067C33.8143 23.1257 33.7763 23.1447 33.7383 23.1637C33.7668 23.1542 33.8617 23.1162 33.7383 23.1637C33.5485 23.2301 33.3492 23.2965 33.1594 23.3439C33.0645 23.3629 32.9791 23.3818 32.8842 23.4008C32.7418 23.4293 32.8462 23.4008 32.8747 23.4008C32.8273 23.4008 32.7893 23.4008 32.7418 23.4103C32.552 23.4198 32.3717 23.4103 32.1819 23.4103C32.3527 23.4198 32.0965 23.3913 32.049 23.3818C31.9731 23.3629 31.8972 23.3439 31.8308 23.3249C31.7643 23.3059 31.6884 23.2775 31.622 23.249C31.5176 23.2111 31.7738 23.3249 31.622 23.249C31.584 23.2301 31.5366 23.2111 31.4986 23.1826C31.4322 23.1447 31.3752 23.1067 31.3088 23.0688C31.2708 23.0403 31.081 22.8886 31.2139 23.0024C31.0905 22.8981 30.9766 22.7842 30.8627 22.6704C30.8343 22.6325 30.7014 22.4712 30.8058 22.604C30.7678 22.5471 30.7204 22.4902 30.6824 22.4238C30.597 22.2815 30.5211 22.1392 30.4546 21.9969C30.5211 22.1392 30.4452 21.9685 30.4262 21.9116C30.3977 21.8452 30.3787 21.7693 30.3597 21.7029C30.3123 21.5416 30.2838 21.3804 30.2553 21.2191C30.2838 21.3993 30.2553 21.1337 30.2553 21.0768C30.2553 20.982 30.2553 20.8871 30.2553 20.8017C30.2553 20.7164 30.2648 20.612 30.2743 20.5172C30.2743 20.4792 30.2933 20.3844 30.2743 20.5361C30.2743 20.4887 30.2933 20.4413 30.3028 20.3939C30.3408 20.2136 30.3882 20.0429 30.4452 19.8722C30.4546 19.8342 30.4736 19.7963 30.4831 19.7678C30.4167 19.9291 30.4926 19.7488 30.5021 19.7299C30.5495 19.6445 30.5875 19.5591 30.6445 19.4738C30.7014 19.3884 30.7488 19.303 30.8058 19.2271C30.8248 19.2082 30.8912 19.1228 30.8058 19.2271C30.8343 19.1892 30.8722 19.1512 30.9007 19.1133C31.0336 18.9615 31.1759 18.8287 31.3278 18.7054C31.2329 18.7813 31.3278 18.7054 31.3373 18.7054C31.3942 18.6675 31.4417 18.6295 31.4986 18.5916C31.5935 18.5347 31.6979 18.4778 31.7928 18.4209C32.0301 18.2975 32.087 18.2786 32.3717 18.1932C33.2448 17.9181 32.8747 16.5427 31.9921 16.8178H31.9162Z" fill="#261D2A"/>
<path d="M16.8458 30.0123C16.4851 24.9186 13.581 20.4604 12.0626 15.6891C11.3033 13.2987 10.8383 10.7186 11.4837 8.24291C12.0626 6.00431 13.5431 3.8416 15.3937 2.44722C21.4202 -2.09638 26.5735 9.21993 28.4811 13.2418C29.2877 14.9492 30.0375 16.6851 30.7967 18.4209C31.0719 19.066 31.3472 19.7015 31.6414 20.337C32.1633 21.4658 32.3721 22.6989 33.0839 23.7329C33.5964 24.4822 34.8302 23.7708 34.3177 23.012C33.6344 22.0255 33.4256 20.8208 32.9321 19.7394C32.6474 19.1134 32.3721 18.4873 32.1064 17.8613C31.3756 16.1823 30.6544 14.4939 29.8761 12.8339C28.2343 9.33375 26.4121 5.71974 23.7358 2.88355C21.6195 0.663925 18.6869 -0.901197 15.6974 0.58804C11.4742 2.69384 9.31034 7.9204 9.86078 12.4166C10.62 18.5917 14.9761 23.7993 15.4222 30.0123C15.4886 30.923 16.9122 30.923 16.8458 30.0123Z" fill="#261D2A"/>
<path d="M9.25293 91.9059C12.8118 91.9059 16.8453 92.3802 20.167 90.9574C25.3867 88.3488 27.7593 82.4203 33.2163 79.8118C38.1988 77.4404 42.944 78.8632 48.1638 77.9147C54.8071 76.9661 55.9934 71.5119 60.9759 67.9548C67.1447 63.212 74.0253 69.1405 80.1941 67.2434" fill="white"/>
<path d="M9.25293 92.6172C12.214 92.6267 15.2129 92.9113 18.136 92.3232C20.6225 91.8204 22.6345 90.4355 24.4471 88.6997C26.2598 86.9638 27.8352 84.9339 29.6764 83.198C31.8592 81.1302 34.4121 79.7548 37.4111 79.29C42.7352 78.4647 48.7522 80.0109 53.393 76.5486C57.0279 73.8452 59.0398 69.093 63.4244 67.3571C68.9574 65.1754 74.7181 69.5483 80.3839 67.9262C81.2665 67.6796 80.8869 66.3042 80.0043 66.5508C75.0123 67.9737 70.0772 64.7296 65.0283 65.4695C59.9794 66.2093 57.5024 70.4209 54.399 73.7124C52.8141 75.4009 50.973 76.6245 48.6763 77.0988C45.6109 77.7248 42.5075 77.4782 39.4041 77.6584C36.5475 77.8197 33.7573 78.4742 31.3372 80.0488C29.2778 81.3863 27.617 83.198 25.9846 85.0003C24.077 87.1061 22.0081 89.5629 19.2559 90.5399C16.0861 91.6687 12.5461 91.2039 9.25293 91.1849C8.33236 91.1849 8.33236 92.6077 9.25293 92.6077V92.6172Z" fill="#261D2A"/>
<path d="M4.27051 54.4376C14.4727 53.4891 25.3868 48.7463 34.8772 45.1892C42.9441 42.3435 51.011 38.5493 57.8916 34.2808" fill="white"/>
<path d="M4.27058 55.149C11.6731 54.4281 18.7815 52.0377 25.719 49.4387C32.6565 46.8396 39.9547 44.269 46.7878 41.0724C50.7169 39.2322 54.5605 37.1738 58.2523 34.8973C59.0305 34.4135 58.3187 33.1899 57.531 33.6641C51.0395 37.6671 44.121 40.987 36.9842 43.662C30.208 46.2041 23.4887 48.9739 16.5702 51.0892C12.5557 52.3128 8.45587 53.3088 4.27058 53.7167C3.36899 53.8021 3.3595 55.2249 4.27058 55.1395V55.149Z" fill="#261D2A"/>
<path d="M10.2026 47.0864C8.67465 47.0864 8.67465 49.4578 10.2026 49.4578C11.7306 49.4578 11.7306 47.0864 10.2026 47.0864Z" fill="#261D2A"/>
<path d="M18.9809 44.478C17.453 44.478 17.453 46.8494 18.9809 46.8494C20.5089 46.8494 20.5089 44.478 18.9809 44.478Z" fill="#261D2A"/>
<path d="M29.4204 41.6323C27.8924 41.6323 27.8924 44.0037 29.4204 44.0037C30.9483 44.0037 30.9483 41.6323 29.4204 41.6323Z" fill="#261D2A"/>
<path d="M39.1479 38.0752C37.62 38.0752 37.62 40.4466 39.1479 40.4466C40.6759 40.4466 40.6759 38.0752 39.1479 38.0752Z" fill="#261D2A"/>
<path d="M49.8247 33.0952C48.2967 33.0952 48.2967 35.4666 49.8247 35.4666C51.3526 35.4666 51.3526 33.0952 49.8247 33.0952Z" fill="#261D2A"/>
<path d="M82.0262 69.9183C82.1401 68.9603 81.1531 67.9548 80.1946 67.8315C77.2905 67.4616 74.3864 67.4426 71.4728 67.49C70.0303 67.196 68.5972 66.8166 67.1452 66.6458C66.8415 66.6079 66.5853 66.6458 66.3575 66.7312C64.6207 66.6174 63.2256 66.8355 61.4984 67.8315C61.1377 68.0402 60.91 68.2963 60.7676 68.5809C60.5588 68.6852 60.35 68.8085 60.1792 69.0077C60.0938 69.1026 60.0368 69.1974 59.9704 69.2923C59.5339 69.6053 59.0973 69.9088 58.6607 70.2124C58.3096 70.459 58.0533 70.791 57.911 71.1515C55.5763 72.7925 53.441 74.6991 51.391 76.6816C50.7647 76.9851 50.1573 77.3171 49.5784 77.6775C45.2982 79.0245 40.0499 78.2751 35.8362 79.5178C32.3247 80.5517 29.4112 83.3405 26.8203 85.7877C22.3313 90.0373 18.2789 91.9628 12.3473 92.0387C11.6355 90.9763 10.2784 91.185 9.57611 92.0292C8.56063 92.2759 7.64006 93.4331 8.19999 94.7042C8.68401 95.8045 9.12057 96.9238 9.62356 98.0241C9.70898 98.2044 9.80388 98.3466 9.91777 98.47C9.80388 99.409 9.60458 100.32 9.44324 101.154C9.187 102.52 10.6675 104.161 12.0531 103.165C13.2299 102.321 14.4447 101.534 15.669 100.765C16.134 101.003 16.6845 101.06 17.2729 100.794C26.4217 96.6108 35.7413 92.845 45.0799 89.1172C45.4026 88.9844 45.6493 88.7947 45.8391 88.567C47.8036 87.7987 49.7587 87.0303 51.7232 86.2715C52.1218 86.1197 52.416 85.8636 52.6153 85.5696C56.9999 83.9191 61.3655 82.2306 65.6742 80.3999C66.31 80.1248 66.5853 79.66 66.6042 79.1573C71.5867 77.1274 76.5787 75.1259 81.6181 73.2288C83.1081 72.6692 83.26 70.5634 82.0357 69.9278L82.0262 69.9183Z" fill="#261D2A"/>
</g>
<defs>
<clipPath id="clip0_2376_7140">
<rect width="84" height="104" fill="white"/>
</clipPath>
</defs>
</svg>
