<svg width="2089" height="157" viewBox="0 0 2089 157" fill="none" xmlns="http://www.w3.org/2000/svg">
<path fill-rule="evenodd" clip-rule="evenodd" d="M1361.11 85.0491C1346.39 89.7413 1333.99 98.3748 1325.77 109.411C1318.19 97.5701 1303.41 89.5103 1286.1 89.5103C1267.84 89.5103 1252.11 98.6466 1245.06 111.743C1240 110.088 1234.48 109.169 1228.73 109.169C1225.28 109.169 1221.94 109.508 1218.74 110.116C1213.22 94.5027 1196.65 83.1036 1175.57 83.1036C1154.49 83.1036 1136.81 95.2381 1131.9 111.63C1123.59 114.281 1116.46 118.927 1111.34 124.871C1107.33 121.437 1102.43 118.724 1096.96 116.985C1092.62 102.528 1076.96 91.8258 1058.31 91.8258C1039.65 91.8258 1024.98 101.879 1020.1 115.65C1017.26 115.114 1014.3 114.815 1011.26 114.815C1006.16 114.815 1001.28 115.625 996.798 117.085C990.554 105.534 976.633 97.4763 960.472 97.4763C944.31 97.4763 930.643 105.385 924.31 116.773C918.35 113.804 911.374 112.095 903.936 112.095C895.482 112.095 887.655 114.291 881.217 118.045C874.944 106.545 861.067 98.5491 844.936 98.5491C839.17 98.5491 833.703 99.5719 828.759 101.418C816.332 82.5081 792.269 69.6853 764.621 69.6853C764.1 69.6853 763.581 69.6898 763.063 69.6989C762.59 69.6898 762.115 69.6853 761.64 69.6853C750.219 69.6853 739.468 72.3025 730.064 76.9158C717.887 82.3753 707.777 90.6306 700.964 100.655C696.995 99.2921 692.7 98.5491 688.207 98.5491C673.458 98.5491 660.771 106.545 655.035 118.045C649.149 114.291 641.993 112.095 634.263 112.095C627.462 112.095 621.084 113.804 615.635 116.773C609.845 105.385 597.349 97.4763 582.573 97.4763C567.796 97.4763 555.068 105.534 549.359 117.085C545.262 115.625 540.797 114.815 536.14 114.815C533.354 114.815 530.65 115.114 528.055 115.65C523.589 101.879 510.178 91.8258 493.121 91.8258C476.064 91.8258 461.751 102.528 457.777 116.985C450.778 119.419 444.811 123.759 440.64 129.312C435.987 121.245 428.234 114.91 418.835 111.63C414.346 95.2381 398.177 83.1036 378.907 83.1036C359.637 83.1036 344.486 94.5027 339.441 110.116C336.509 109.508 333.455 109.169 330.307 109.169C325.046 109.169 320.001 110.088 315.372 111.743C308.923 98.6466 294.544 89.5103 277.851 89.5103C261.157 89.5103 247.04 98.4769 240.498 111.389C234.342 108.023 227.137 106.086 219.454 106.086C210.721 106.086 202.637 108.575 195.987 112.832C189.507 99.7921 175.174 90.7266 158.512 90.7266C152.556 90.7266 146.909 91.8863 141.803 93.9794C128.966 72.5389 104.111 58 75.553 58C33.8191 58 0 89.0011 0 127.258V157L435.599 157H698.555H822.043H1121.22L1317.6 157H1581.99H2088.39V109.833C2088.39 49.1634 2029.67 0 1957.2 0C1907.61 0 1864.45 23.0566 1842.16 57.0583C1833.29 53.7389 1823.49 51.8997 1813.14 51.8997C1784.21 51.8997 1759.32 66.2764 1748.07 86.9556C1736.52 80.2046 1722.49 76.2571 1707.32 76.2571C1693.98 76.2571 1681.47 79.3299 1670.78 84.6679C1659.42 64.1906 1634.91 49.9709 1605.92 49.9709C1584.98 49.9709 1566.14 57.5287 1553.07 69.5518C1539.98 62.2528 1524.26 58 1507.36 58C1499.54 58 1491.98 58.9099 1484.82 60.61C1471.95 47.8755 1452.79 39.8107 1430.44 39.8107C1396.98 39.8107 1368.9 59.0544 1361.11 85.0491Z" fill="white"/>
</svg>
