<svg width="439" height="79" viewBox="0 0 439 79" fill="none" xmlns="http://www.w3.org/2000/svg">
<path d="M437.525 78.9557C438.483 76.4163 439 73.7426 439 70.9795C439 58.2264 428.127 47.3528 412.829 43.0682C408.403 30.1026 392.466 20.5043 373.472 20.5043C354.479 20.5043 339.545 29.5209 334.572 41.8712C331.683 41.3902 328.672 41.1217 325.57 41.1217C320.384 41.1217 315.412 41.8488 310.849 43.1577C304.493 32.7986 290.32 25.5719 273.866 25.5719C257.411 25.5719 243.497 32.6644 237.049 42.878C230.981 40.2155 223.88 38.6829 216.307 38.6829C207.699 38.6829 199.731 40.6518 193.176 44.0191C186.789 33.7048 172.662 26.534 156.238 26.534C150.368 26.534 144.802 27.4513 139.769 29.107C127.117 12.1477 102.618 0.647552 74.4694 0.647552C33.3341 0.647552 0 25.1692 0 55.4297C0 63.8534 2.58522 71.8297 7.20819 78.9557H437.525Z" fill="#5076C0"/>
</svg>
