<svg width="415" height="114" viewBox="0 0 415 114" fill="none" xmlns="http://www.w3.org/2000/svg">
<path d="M387.767 113.735C387.767 113.804 387.729 113.887 387.729 113.956H3.6145C1.3387 111.114 -1.07288e-05 107.817 -1.07288e-05 104.3C-1.07288e-05 93.637 11.991 84.9881 26.7742 84.9881C28.1703 84.9881 29.5281 85.0846 30.8477 85.2363C36.2408 73.8148 51.1961 65.5935 68.8479 65.5935C72.0991 65.5935 75.2355 65.897 78.2571 66.4212C81.011 47.8405 102.373 33.2877 128.631 32.6118C138.289 14.0587 163.112 0.843933 192.2 0.843933C221.289 0.843933 245.232 13.6035 255.254 31.6462C266.116 24.5146 280.574 20.1557 296.429 20.1557C323.949 20.1557 347.223 33.2601 354.93 51.3028C359.252 50.3372 363.861 49.8131 368.623 49.8131C394.231 49.8131 415 64.7935 415 83.2638C415 96.8096 403.812 108.479 387.767 113.735Z" fill="#5076C0"/>
</svg>
