<svg width="752" height="212" viewBox="0 0 752 212" fill="none" xmlns="http://www.w3.org/2000/svg">
<path d="M0 193.702C0 193.702 0 211.703 0 211.832L745.45 211.703C749.574 206.406 752 200.26 752 193.702C752 173.824 730.272 157.7 703.484 157.7C700.954 157.7 698.494 157.88 696.102 158.163C686.33 136.871 659.23 121.544 627.244 121.544C621.353 121.544 615.67 122.11 610.194 123.087C605.204 88.4481 566.495 61.3181 518.915 60.058C501.414 25.4705 456.433 0.834869 403.723 0.834869C351.014 0.834869 307.627 24.6219 289.468 58.2579C269.784 44.9629 243.586 36.8368 214.857 36.8368C164.989 36.8368 122.815 61.2667 108.849 94.9027C101.018 93.1027 92.6658 92.1255 84.0369 92.1255C37.6346 92.1255 0 120.053 0 154.486C0 179.739 0 193.702 0 193.702Z" fill="#5076C0"/>
</svg>
