<svg width="752" height="222" viewBox="0 0 752 222" fill="none" xmlns="http://www.w3.org/2000/svg">
<path d="M752 202.678C752 216.196 752 221.557 752 221.557H6.54968C2.42581 216.001 -1.29698e-06 209.556 -1.29698e-06 202.678C-1.29698e-06 181.831 21.7283 164.921 48.5162 164.921C51.0459 164.921 53.5064 165.11 55.8975 165.407C65.6701 143.076 92.7698 127.003 124.756 127.003C130.647 127.003 136.33 127.596 141.806 128.621C146.796 92.2932 185.505 63.8406 233.085 62.5191C250.586 26.2455 295.567 0.408905 348.277 0.408905C400.986 0.408905 444.373 25.3555 462.532 60.6313C482.216 46.6882 508.414 38.1659 537.143 38.1659C587.011 38.1659 629.185 63.7867 643.151 99.0625C650.982 97.1747 659.334 96.1498 667.963 96.1498C714.365 96.1498 752 125.438 752 161.55C752 188.034 752 180.678 752 202.678Z" fill="#5076C0"/>
</svg>
