<svg width="25" height="25" viewBox="0 0 25 25" fill="none" xmlns="http://www.w3.org/2000/svg">
<path opacity="0.4" d="M14.5784 5.5937C14.1024 5.50576 13.6652 5.80955 13.5746 6.27423C13.4839 6.73892 13.7887 7.1926 14.2518 7.28354C15.646 7.55536 16.7226 8.63461 16.9955 10.0337V10.0347C17.0732 10.4374 17.4277 10.7302 17.836 10.7302C17.8908 10.7302 17.9456 10.7252 18.0013 10.7152C18.4644 10.6222 18.7692 10.1696 18.6785 9.70388C18.2712 7.61431 16.6628 6.00042 14.5784 5.5937Z" fill="white"/>
<path opacity="0.4" d="M14.516 2.11169C14.2929 2.07971 14.0688 2.14567 13.8906 2.28757C13.7073 2.43147 13.5928 2.63933 13.5679 2.87217C13.5151 3.34284 13.8547 3.76855 14.3248 3.82152C17.5665 4.18327 20.0861 6.70853 20.4506 9.9603C20.4994 10.396 20.8649 10.7248 21.3011 10.7248C21.3339 10.7248 21.3658 10.7228 21.3987 10.7188C21.6267 10.6938 21.8299 10.5809 21.9733 10.401C22.1157 10.2211 22.1805 9.99727 22.1546 9.76843C21.7004 5.71122 18.5604 2.56238 14.516 2.11169Z" fill="white"/>
<path fill-rule="evenodd" clip-rule="evenodd" d="M11.1919 13.0761C15.181 17.0641 16.0859 12.4505 18.6258 14.9886C21.0744 17.4365 22.4818 17.927 19.3794 21.0285C18.9908 21.3408 16.5218 25.098 7.84476 16.4234C-0.833322 7.74776 2.92174 5.2762 3.23413 4.88771C6.34402 1.77761 6.82602 3.19314 9.27465 5.64109C11.8145 8.18026 7.20281 9.08817 11.1919 13.0761Z" fill="white"/>
</svg>
