<svg width="1920" height="480" viewBox="0 0 1920 480" fill="none" xmlns="http://www.w3.org/2000/svg">
<path d="M1117.5 258.231C1116.13 254.104 1115.4 249.759 1115.4 245.268C1115.4 224.543 1130.85 206.873 1152.59 199.91C1158.88 178.839 1181.52 163.241 1208.52 163.241C1235.51 163.241 1256.73 177.894 1263.79 197.964C1267.9 197.183 1272.18 196.746 1276.59 196.746C1283.96 196.746 1291.02 197.928 1297.5 200.055C1306.54 183.22 1326.68 171.476 1350.06 171.476C1373.44 171.476 1393.21 183.002 1402.38 199.601C1411 195.274 1421.09 192.783 1431.85 192.783C1444.08 192.783 1455.41 195.983 1464.72 201.455C1473.8 184.693 1493.87 173.04 1517.21 173.04C1525.55 173.04 1533.46 174.531 1540.61 177.221C1558.59 149.66 1593.41 130.972 1633.41 130.972C1691.86 130.972 1739.23 170.822 1739.23 219.998C1739.23 233.688 1735.56 246.65 1728.99 258.231H1117.5Z" fill="white" fill-opacity="0.7"/>
<path d="M1197.64 270.557C1199.66 264.396 1200.75 257.91 1200.75 251.207C1200.75 220.269 1177.78 193.891 1145.45 183.496C1136.1 152.043 1102.42 128.758 1062.28 128.758C1022.14 128.758 990.585 150.632 980.077 180.593C973.971 179.426 967.608 178.774 961.052 178.774C950.094 178.774 939.585 180.538 929.945 183.714C916.512 158.583 886.561 141.052 851.79 141.052C817.019 141.052 787.615 158.258 773.989 183.035C761.167 176.576 746.16 172.858 730.156 172.858C711.967 172.858 695.128 177.635 681.277 185.803C667.78 160.782 637.926 143.386 603.219 143.386C590.815 143.386 579.053 145.611 568.416 149.628C541.679 108.486 489.908 80.5871 430.425 80.5871C343.497 80.5871 273.055 140.075 273.055 213.485C273.055 233.92 278.518 253.27 288.288 270.557H1197.64Z" fill="white" fill-opacity="0.7"/>
<path d="M49.3478 234.617C49.3478 234.745 49.4171 234.9 49.4171 235.028H745.45C749.574 229.728 752 223.578 752 217.016C752 197.126 730.272 180.992 703.484 180.992C700.954 180.992 698.494 181.173 696.102 181.456C686.33 160.15 659.23 144.814 627.244 144.814C621.353 144.814 615.67 145.38 610.194 146.358C605.204 111.698 566.495 84.5514 518.915 83.2905C501.414 48.6819 456.433 24.0312 403.724 24.0312C351.014 24.0312 307.627 47.8327 289.468 81.4893C269.784 68.1862 243.586 60.0551 214.857 60.0551C164.989 60.0551 122.815 84.4999 108.849 118.156C101.018 116.355 92.6658 115.378 84.0369 115.378C37.6347 115.378 0 143.322 0 177.776C0 203.044 20.2728 224.813 49.3478 234.617Z" fill="#F6F9FB"/>
<path d="M1920 199.715L1920 224.877L1174.55 221.522C1170.43 215.959 1168 209.506 1168 202.62C1168 181.747 1189.73 164.817 1216.52 164.817C1219.05 164.817 1221.51 165.006 1223.9 165.303C1233.67 142.945 1260.77 126.852 1292.76 126.852C1298.65 126.852 1304.33 127.446 1309.81 128.472C1314.8 92.1002 1353.5 63.6129 1401.09 62.2898C1418.59 25.9719 1463.57 0.10376 1516.28 0.10376C1568.99 0.10376 1612.37 25.0808 1630.53 60.3996C1650.22 46.4395 1676.41 37.9068 1705.14 37.9068C1755.01 37.9068 1797.18 63.5589 1811.15 98.8778C1818.98 96.9876 1827.33 95.9615 1835.96 95.9615C1882.37 95.9615 1920 125.286 1920 161.442C1920 187.958 1920 199.715 1920 199.715Z" fill="#F6F9FB"/>
<path d="M0 251.702C0 251.702 0 269.703 0 269.832L745.45 269.703C749.574 264.406 752 258.26 752 251.702C752 231.824 730.272 215.7 703.484 215.7C700.954 215.7 698.494 215.88 696.102 216.163C686.33 194.871 659.23 179.544 627.244 179.544C621.353 179.544 615.67 180.11 610.194 181.087C605.204 146.448 566.495 119.318 518.915 118.058C501.414 83.4705 456.433 58.8349 403.723 58.8349C351.014 58.8349 307.627 82.6219 289.468 116.258C269.784 102.963 243.586 94.8368 214.857 94.8368C164.989 94.8368 122.815 119.267 108.849 152.903C101.018 151.103 92.6658 150.125 84.0369 150.125C37.6346 150.125 0 178.053 0 212.486C0 237.739 0 251.702 0 251.702Z" fill="#5076C0"/>
<path d="M1920 251.678C1920 265.196 1920 270.557 1920 270.557H1174.55C1170.43 265.001 1168 258.556 1168 251.678C1168 230.831 1189.73 213.921 1216.52 213.921C1219.05 213.921 1221.51 214.11 1223.9 214.407C1233.67 192.076 1260.77 176.003 1292.76 176.003C1298.65 176.003 1304.33 176.596 1309.81 177.621C1314.8 141.293 1353.5 112.841 1401.09 111.519C1418.59 75.2455 1463.57 49.4089 1516.28 49.4089C1568.99 49.4089 1612.37 74.3555 1630.53 109.631C1650.22 95.6882 1676.41 87.1659 1705.14 87.1659C1755.01 87.1659 1797.18 112.787 1811.15 148.063C1818.98 146.175 1827.33 145.15 1835.96 145.15C1882.37 145.15 1920 174.438 1920 210.55C1920 237.034 1920 229.678 1920 251.678Z" fill="#5076C0"/>
<path d="M755.592 258.956C756.507 257.404 757 255.77 757 254.081C757 246.288 746.622 239.643 732.021 237.024C727.797 229.101 712.586 223.235 694.458 223.235C676.329 223.235 662.076 228.746 657.33 236.293C654.572 235.999 651.698 235.835 648.738 235.835C643.788 235.835 639.042 236.279 634.688 237.079C628.621 230.749 615.093 226.332 599.389 226.332C583.684 226.332 570.404 230.667 564.25 236.908C558.458 235.281 551.68 234.345 544.452 234.345C536.237 234.345 528.631 235.548 522.376 237.606C516.28 231.302 502.796 226.92 487.12 226.92C481.518 226.92 476.206 227.481 471.401 228.493C459.325 218.129 435.943 211.101 409.077 211.101C369.815 211.101 338 226.086 338 244.579C338 249.727 340.467 254.601 344.88 258.956H755.592Z" fill="#5076C0"/>
<path d="M1527.52 258.956C1528.48 256.416 1529 253.743 1529 250.979C1529 238.226 1518.13 227.353 1502.83 223.068C1498.4 210.103 1482.47 200.504 1463.47 200.504C1444.48 200.504 1429.55 209.521 1424.57 221.871C1421.68 221.39 1418.67 221.122 1415.57 221.122C1410.38 221.122 1405.41 221.849 1400.85 223.158C1394.49 212.799 1380.32 205.572 1363.87 205.572C1347.41 205.572 1333.5 212.664 1327.05 222.878C1320.98 220.216 1313.88 218.683 1306.31 218.683C1297.7 218.683 1289.73 220.652 1283.18 224.019C1276.79 213.705 1262.66 206.534 1246.24 206.534C1240.37 206.534 1234.8 207.451 1229.77 209.107C1217.12 192.148 1192.62 180.648 1164.47 180.648C1123.33 180.648 1090 205.169 1090 235.43C1090 243.853 1092.59 251.83 1097.21 258.956H1527.52Z" fill="#5076C0"/>
<path d="M1108.77 258.735C1108.77 258.804 1108.73 258.887 1108.73 258.956H724.615C722.339 256.114 721 252.817 721 249.3C721 238.637 732.991 229.988 747.774 229.988C749.17 229.988 750.528 230.085 751.848 230.236C757.241 218.815 772.196 210.594 789.848 210.594C793.099 210.594 796.235 210.897 799.257 211.421C802.011 192.84 823.373 178.288 849.631 177.612C859.289 159.059 884.112 145.844 913.2 145.844C942.289 145.844 966.232 158.603 976.254 176.646C987.116 169.515 1001.57 165.156 1017.43 165.156C1044.95 165.156 1068.22 178.26 1075.93 196.303C1080.25 195.337 1084.86 194.813 1089.62 194.813C1115.23 194.813 1136 209.793 1136 228.264C1136 241.81 1124.81 253.479 1108.77 258.735Z" fill="#5076C0"/>
<rect y="252.43" width="1920" height="227.674" fill="#5076C0"/>
</svg>
