<svg width="25" height="25" viewBox="0 0 25 25" fill="none" xmlns="http://www.w3.org/2000/svg">
<path opacity="0.4" d="M11.9358 22.4412C9.65277 21.0311 7.53047 19.3683 5.60774 17.4834C4.25036 16.1375 3.21371 14.4942 2.57701 12.679C1.43938 9.13899 2.76366 5.09324 6.46096 3.89216C8.41247 3.27929 10.5349 3.65551 12.1669 4.90359C13.7995 3.65691 15.9212 3.28081 17.8728 3.89216C21.5701 5.09324 22.9033 9.13899 21.7657 12.679C21.1341 14.4925 20.1037 16.1357 18.7527 17.4834C16.8282 19.3662 14.7062 21.0288 12.4246 22.4412L12.1758 22.6038L11.9358 22.4412Z" fill="white"/>
<path d="M12.1711 22.6038L11.9361 22.4412C9.65029 21.0312 7.52503 19.3684 5.59917 17.4834C4.23536 16.1394 3.19254 14.4959 2.55068 12.679C1.42193 9.13899 2.74621 5.09324 6.44351 3.89216C8.39502 3.27929 10.5454 3.6558 12.1711 4.91433V22.6038Z" fill="white"/>
<path d="M18.3906 10.603C18.1897 10.59 18.0027 10.4897 17.8732 10.3253C17.7438 10.161 17.6833 9.94716 17.7061 9.73392C17.7278 9.03156 17.3282 8.39226 16.7119 8.14353C16.3211 8.03685 16.0844 7.61363 16.1822 7.19625C16.275 6.78558 16.6595 6.53023 17.046 6.62266C17.0948 6.63076 17.1418 6.64844 17.1845 6.67481C18.4202 7.15034 19.2203 8.43017 19.1566 9.82952C19.1546 10.0416 19.0719 10.2437 18.9275 10.3896C18.7831 10.5354 18.5893 10.6124 18.3906 10.603Z" fill="white"/>
</svg>
