<svg width="47" height="47" viewBox="0 0 47 47" fill="none" xmlns="http://www.w3.org/2000/svg">
<circle cx="23.02" cy="23.1238" r="23.02" fill="white"/>
<path d="M19.2524 20.7718H16.3813V29.9274H19.2524V20.7718Z" fill="#FFA800"/>
<path d="M27.019 20.5732C26.9132 20.56 26.8007 20.5534 26.6882 20.5468C25.0807 20.4806 24.1744 21.4332 23.8569 21.8434C23.7709 21.9558 23.7312 22.022 23.7312 22.022V20.7981H20.9858V29.9537H23.7312H23.8569C23.8569 29.021 23.8569 28.0948 23.8569 27.1621C23.8569 26.6593 23.8569 26.1566 23.8569 25.6538C23.8569 25.0319 23.8106 24.3704 24.1215 23.8015C24.3861 23.3252 24.8624 23.087 25.3983 23.087C26.9859 23.087 27.019 24.5226 27.019 24.6549C27.019 24.6615 27.019 24.6681 27.019 24.6681V29.9934H29.8901V24.0198C29.8901 21.9757 28.8514 20.7717 27.019 20.5732Z" fill="#FFA800"/>
<path d="M17.817 19.5878C18.7377 19.5878 19.484 18.8414 19.484 17.9207C19.484 17 18.7377 16.2537 17.817 16.2537C16.8963 16.2537 16.1499 17 16.1499 17.9207C16.1499 18.8414 16.8963 19.5878 17.817 19.5878Z" fill="#FFA800"/>
</svg>
