<svg width="47" height="47" viewBox="0 0 47 47" fill="none" xmlns="http://www.w3.org/2000/svg">
<circle cx="23.1001" cy="23.1238" r="23.02" fill="white"/>
<path d="M23.0997 15.4875C21.0258 15.4875 20.7655 15.4965 19.951 15.5336C19.1381 15.5708 18.5832 15.6995 18.0977 15.8884C17.5954 16.0834 17.1694 16.3443 16.745 16.7689C16.3202 17.1934 16.0593 17.6194 15.8636 18.1215C15.6743 18.6072 15.5455 19.1623 15.5089 19.9749C15.4724 20.7895 15.4629 21.0499 15.4629 23.1238C15.4629 25.1977 15.4721 25.4572 15.509 26.2717C15.5464 27.0847 15.6751 27.6396 15.8638 28.1252C16.059 28.6274 16.3199 29.0534 16.7445 29.4779C17.1688 29.9027 17.5948 30.1642 18.0967 30.3593C18.5826 30.5481 19.1376 30.6768 19.9504 30.714C20.7649 30.7511 21.025 30.7602 23.0987 30.7602C25.1727 30.7602 25.4322 30.7511 26.2467 30.714C27.0596 30.6768 27.6152 30.5481 28.101 30.3593C28.6031 30.1642 29.0285 29.9027 29.4528 29.4779C29.8775 29.0534 30.1384 28.6274 30.3341 28.1253C30.5218 27.6396 30.6507 27.0845 30.6889 26.2719C30.7255 25.4574 30.735 25.1977 30.735 23.1238C30.735 21.0499 30.7255 20.7896 30.6889 19.9751C30.6507 19.1621 30.5218 18.6072 30.3341 18.1217C30.1384 17.6194 29.8775 17.1934 29.4528 16.7689C29.028 16.3442 28.6032 16.0833 28.1005 15.8884C27.6137 15.6995 27.0585 15.5708 26.2456 15.5336C25.4311 15.4965 25.1718 15.4875 23.0973 15.4875H23.0997ZM22.4146 16.8636C22.6179 16.8633 22.8448 16.8636 23.0997 16.8636C25.1385 16.8636 25.3802 16.8709 26.1853 16.9075C26.9298 16.9415 27.3339 17.066 27.6031 17.1705C27.9594 17.3089 28.2135 17.4743 28.4806 17.7416C28.7479 18.0089 28.9133 18.2634 29.052 18.6198C29.1565 18.8887 29.2811 19.2928 29.315 20.0373C29.3516 20.8423 29.3595 21.0841 29.3595 23.1221C29.3595 25.16 29.3516 25.4018 29.315 26.2068C29.2809 26.9514 29.1565 27.3555 29.052 27.6243C28.9136 27.9807 28.7479 28.2345 28.4806 28.5016C28.2133 28.7688 27.9596 28.9343 27.6031 29.0727C27.3342 29.1777 26.9298 29.3018 26.1853 29.3358C25.3803 29.3724 25.1385 29.3804 23.0997 29.3804C21.0607 29.3804 20.819 29.3724 20.014 29.3358C19.2695 29.3015 18.8654 29.1771 18.5961 29.0725C18.2397 28.9341 17.9852 28.7687 17.7179 28.5014C17.4507 28.2341 17.2852 27.9802 17.1465 27.6237C17.042 27.3548 16.9174 26.9507 16.8835 26.2062C16.8469 25.4012 16.8396 25.1594 16.8396 23.1202C16.8396 21.0809 16.8469 20.8404 16.8835 20.0354C16.9176 19.2908 17.042 18.8868 17.1465 18.6176C17.2849 18.2612 17.4507 18.0067 17.7179 17.7394C17.9852 17.4721 18.2397 17.3067 18.5961 17.1679C18.8653 17.0629 19.2695 16.9388 20.014 16.9046C20.7185 16.8728 20.9915 16.8633 22.4146 16.8617V16.8636ZM27.1758 18.1315C26.6699 18.1315 26.2594 18.5415 26.2594 19.0476C26.2594 19.5535 26.6699 19.964 27.1758 19.964C27.6817 19.964 28.0921 19.5535 28.0921 19.0476C28.0921 18.5417 27.6817 18.1312 27.1758 18.1312V18.1315ZM23.0997 19.2022C20.934 19.2022 19.1782 20.9581 19.1782 23.1238C19.1782 25.2895 20.934 27.0446 23.0997 27.0446C25.2653 27.0446 27.0205 25.2895 27.0205 23.1238C27.0205 20.9581 25.2651 19.2022 23.0995 19.2022H23.0997ZM23.0997 20.5784C24.5053 20.5784 25.645 21.7179 25.645 23.1238C25.645 24.5295 24.5053 25.6693 23.0997 25.6693C21.6938 25.6693 20.5543 24.5295 20.5543 23.1238C20.5543 21.7179 21.6938 20.5784 23.0997 20.5784Z" fill="#FFA800"/>
</svg>
