<svg width="47" height="47" viewBox="0 0 47 47" fill="none" xmlns="http://www.w3.org/2000/svg">
<circle cx="23.1401" cy="23.1238" r="23.02" fill="white"/>
<path d="M31.0038 15.2754C30.5869 14.8476 29.97 14.6882 29.3948 14.856L15.9809 18.7567C15.374 18.9253 14.9439 19.4093 14.828 20.0242C14.7096 20.65 15.1231 21.4444 15.6633 21.7766L19.8575 24.3544C20.2877 24.6187 20.8429 24.5524 21.1989 24.1934L26.0017 19.3607C26.2435 19.109 26.6436 19.109 26.8854 19.3607C27.1272 19.604 27.1272 19.9982 26.8854 20.2499L22.0743 25.0834C21.7175 25.4416 21.6508 25.9995 21.9134 26.4323L24.4761 30.6686C24.7762 31.1719 25.2931 31.4571 25.86 31.4571C25.9267 31.4571 26.0017 31.4571 26.0684 31.4487C26.7187 31.3648 27.2356 30.9202 27.4273 30.2911L31.4039 16.8944C31.579 16.324 31.4206 15.7032 31.0038 15.2754Z" fill="#FFA800"/>
</svg>
