<svg width="47" height="47" viewBox="0 0 47 47" fill="none" xmlns="http://www.w3.org/2000/svg">
<circle cx="23.06" cy="23.1238" r="23.02" fill="white"/>
<path d="M30.6066 19.5148C30.1928 18.5603 29.5987 17.7033 28.8444 16.9648C28.0901 16.2332 27.2156 15.6549 26.241 15.2508C25.2331 14.8328 24.165 14.6238 23.0636 14.6238C21.9622 14.6238 20.8941 14.8328 19.8862 15.2508C18.9116 15.6549 18.0371 16.2262 17.2828 16.9648C16.5285 17.7033 15.9344 18.5603 15.5206 19.5148C15.0933 20.5041 14.873 21.5631 14.873 22.65C14.873 24.5521 15.5539 26.3775 16.8022 27.8266L16.1347 31.6238L19.6859 29.9725C20.7473 30.4463 21.8754 30.6832 23.0569 30.6832C24.1583 30.6832 25.2264 30.4742 26.2343 30.0562C27.2089 29.6521 28.0834 29.0807 28.8377 28.3422C29.592 27.6037 30.1861 26.7467 30.5999 25.7922C31.0272 24.8029 31.2475 23.7439 31.2475 22.657C31.2541 21.5631 31.0338 20.5111 30.6066 19.5148Z" stroke="#FFA800" stroke-width="1.5"/>
<path d="M26.5146 24.2524C26.1542 24.0713 25.8909 23.9598 25.7038 23.8902C25.586 23.8484 25.3088 23.7229 25.2117 23.7996C24.9068 24.0504 24.5811 24.7611 24.2346 24.8934C23.3752 24.7262 22.5783 24.134 21.9545 23.5279C21.6773 23.2631 21.1645 22.5106 21.0536 22.3086C21.0328 22.0996 21.407 21.8209 21.4902 21.6606C21.9199 21.1729 21.5942 20.8664 21.5387 20.6643C21.4417 20.4553 21.2754 20.0791 21.1298 19.7725C21.0051 19.5705 20.9773 19.2709 20.7556 19.1594C19.8131 18.6717 19.2725 19.6471 19.0508 20.1557C17.7132 23.3955 25.7523 29.5615 27.3878 25.3115C27.471 24.9422 27.4363 24.8029 27.3116 24.6356C27.0621 24.4615 26.771 24.3848 26.5146 24.2524Z" fill="#FFA800"/>
</svg>
